<svg width="1065" height="1041" viewBox="0 0 1065 1041" fill="none" xmlns="http://www.w3.org/2000/svg">
<path d="M711.371 489.451C741.069 486.885 775.703 481.854 798.105 504.854C808.183 515.199 808.495 532.517 809.915 546.161C810.872 555.38 808.703 566.461 808.823 575.883C808.5 590.775 808.552 605.449 808.573 620.331C808.599 642.201 810.934 664.269 811.308 686.046C812.541 758.011 807.268 829.95 810.097 901.895C810.747 918.378 808.537 937.316 796.561 949.671C778.885 967.901 758.443 964.875 735.219 965.504C721.355 965.977 707.481 966.201 693.612 966.18C670.357 965.982 647.247 964.932 624.091 964.667C604.876 964.464 585.662 964.428 566.442 964.558C555.563 964.719 544.674 965.332 533.8 965.39L429.95 965.483C424.958 964.953 408.434 965.842 402.601 966.014L365.577 966.757C342.274 967.282 312.043 968.983 288.924 963.377C279.299 959.805 265.361 948.204 261.127 939.318C257.051 930.202 256.025 919.33 256.092 909.429C256.247 886.358 255.21 863.557 254.456 840.548C253.968 821.568 253.676 802.589 253.579 783.61C253.471 739.739 253.869 695.868 254.775 652.003C254.972 640.189 255.703 628.728 255.82 616.769C256.049 593.38 254.401 569.799 255.229 546.488C255.457 536.375 257.727 525.523 260.324 516.068C262.846 506.889 281.329 491.605 290.304 491.84C301.584 492.134 344.89 487.282 352.949 490.281C355.2 495.021 351.344 513.396 354.784 523.526C357.494 533.063 364.065 540.659 372.558 545.662C393.704 558.12 416.372 545.818 425.215 524.649C428.537 516.699 424.481 496.745 427.612 491.061C431.133 489.41 450.466 490.557 455.769 490.371C491.62 489.111 527.731 490.114 563.634 489.761C576.551 489.634 587.622 488.422 600.066 487.99C611.803 487.583 625.687 487.655 637.586 487.594C639.676 488.237 639.088 492.004 638.995 493.994C638.163 512.152 636.088 524.504 648.797 539.001C655.105 546.192 660.836 548.969 670.305 549.806C682.037 550.835 689.619 548.35 698.901 541.247C700.331 540.155 704.798 537.55 705.776 536.411C715.937 524.504 710.882 502.88 711.335 490.279L711.371 489.451ZM405.225 938.507L520.264 937.997C545.573 938.054 570.649 939.047 596.13 938.819C617.804 938.621 639.473 938.293 661.137 937.836C679.692 937.3 698.137 935.699 716.707 936.733C725.724 937.056 736.192 938.33 745.172 937.623C752.962 937.004 768.027 936.733 773.82 931.331C782.541 923.193 781.215 904.786 781.881 893.638C782.728 879.421 783.316 864.805 782.957 850.604C781.87 805.064 781.511 759.509 781.875 713.958C782.052 693.705 783.118 674.097 783.03 653.807C782.952 635.109 781.033 616.53 780.804 598.096C763.253 597.348 745.604 597.181 728.033 596.833C706.743 596.417 683.327 595.19 662.276 596.188C629.806 597.743 594.44 596.797 561.621 596.901L496.52 597.686C470.378 597.847 444.235 597.701 418.096 597.254C385.485 596.89 353.205 596.017 320.601 598.284C310.678 598.975 294.456 597.379 285.371 599.251C282.838 602.979 284.067 754.683 283.866 770.095C283.619 788.997 281.992 807.908 282.096 826.81C282.225 850.193 283.259 873.301 284.529 896.638C284.933 904.053 284.285 912.014 285.631 919.298C286.51 924.062 288.908 930.073 292.937 932.984C302.635 939.999 360.72 938.33 375.056 938.345C385.137 938.356 395.124 938.787 405.225 938.507Z" fill="#FE7F8E"/>
<path d="M387.884 620.669C389.163 620.7 391.996 620.82 392.551 622.281C398.121 637.069 395.214 654.774 395.629 670.436C395.783 676.213 395.94 683.987 395.282 689.65C413.886 689.67 432.406 689.348 450.999 689.161C460.263 689.067 469.544 689.343 478.808 689.15C479.312 668.762 477.503 648.488 480.067 628.157C480.487 624.829 480.668 621.834 484.146 620.877C485.69 621.153 487.04 621.418 488.213 622.546C493.356 627.512 490.416 680.134 490.254 689.457C507.429 689.093 524.606 688.911 541.788 688.906C552.256 688.89 564.169 688.682 574.492 689.535C573.67 678.283 572.609 633.284 576.972 624.049C577.726 622.442 578.485 621.834 580.134 621.277C581.387 621.621 582.765 622.12 583.722 623.05C587.856 627.07 587.102 680.945 586.795 689.447C595.76 688.994 605.417 690.336 613.878 689.675C632.614 688.225 650.924 687.96 669.692 687.523C668.49 677.134 668.22 632.155 672.318 624.272C673.165 622.64 674.003 621.761 675.781 621.173C677.024 621.231 677.95 621.329 678.813 622.338C682.494 626.643 682.89 679.068 682.557 687.642C696.046 688.417 709.541 689.057 723.04 689.561C731.454 689.8 741.355 689.483 749.608 690.669C751.48 690.939 753.072 692.234 754.101 693.846C754.907 701.079 732.973 698.973 727.341 699.139L682.77 700.502C682.271 732.423 682.214 764.381 680.872 796.313C680.414 807.186 681.995 800.289 682.489 811.339C693.42 813.018 707.169 811.396 718.329 811.921C727.84 812.368 748.147 808.833 754.34 817.438C754.652 819.295 754.845 818.494 753.935 819.96C751.995 821.135 747.83 822.451 745.588 822.487C724.71 822.82 703.82 823.018 682.952 823.631C682.063 839.049 682.936 874.56 681.652 889.956C681.236 894.932 681.595 910.313 677.081 912.908C675.24 913.142 674.231 912.18 672.588 911.151C669.291 905.826 669.551 894.823 669.936 888.687C670.856 873.816 669.468 838.825 669.92 824.042C648.464 823.59 626.743 824.276 605.256 823.917C599.354 823.818 592.833 823.839 586.967 824.219L586.696 885.604C586.618 891.547 588.662 920.843 575.958 910.204C573.488 901.047 575.63 886.119 575.511 876.27C575.381 865.824 574.372 834.41 574.674 824.115L490.71 823.818C490.414 835.965 493.923 904.36 487.901 911.613C486.941 912.768 486.297 912.976 484.855 913.194C482.206 912.159 480.122 908.369 480.137 905.753C480.256 885.401 477.681 843.848 478.372 823.647C454.982 822.056 431.282 822.628 407.854 822.986C403.653 823.049 399.938 823.064 395.735 823.522C396.079 837.478 398.615 898.375 393.971 908.785C393.063 910.818 392.008 912.17 389.854 912.96C386.023 912.669 384.65 909.326 384.547 905.888C383.932 885.318 382.742 844.087 382.572 823.548C365.88 823.959 348.877 824.188 332.183 823.782C326.525 823.642 315.02 823.558 311.131 819.419C310.744 818.182 310.487 817.641 311.159 816.393C316.138 807.163 372.045 815.01 382.839 810.809C384.149 809.061 384.324 808.345 384.361 804.591C384.703 770.018 380.332 734.056 383.681 699.555C363.963 700.579 343.698 699.878 323.975 698.936C320.144 698.754 309.01 698.957 310.9 692.972C316.11 687.954 336.57 688.974 344.263 689.041C357.197 689.28 370.133 689.416 383.07 689.447C383.66 676.416 383.15 662.943 383.75 649.928C384.079 642.789 383.124 625.505 387.884 620.669ZM477.935 811.599C478.986 809.987 479.754 790.692 479.546 785.83C478.306 756.81 477.396 728.367 479.129 699.285C471.839 699.597 463.529 699.581 456.227 699.347C436.646 698.718 414.813 700.928 395.421 698.926C395.558 706.778 395.678 714.614 396.035 722.46C397.693 758.802 395.588 775.309 395.626 811.656C419.12 811.276 442.853 812.327 466.384 811.76C470.191 811.666 474.133 811.578 477.935 811.599ZM571.382 810.606C573.446 810.387 573.452 810.767 574.481 809.597C574.055 804.07 574.081 817.892 574.174 812.323C574.668 782.003 572.5 751.709 573.41 721.399C573.613 714.525 573.431 705.998 574.585 699.352C558.158 699.758 540.436 698.864 523.785 699.056C517.303 699.134 499.904 699.602 494.096 699.046C491.759 699.295 491.863 698.879 490.566 700.163C490.316 706.944 491.128 717.453 491.315 724.608C491.554 738.366 491.651 752.13 491.604 765.894C491.576 785.237 489.627 793.519 491.147 811.786C517.897 812.322 544.658 811.926 571.382 810.606ZM670.009 811.162C669.728 799.431 671.288 807.399 670.591 795.757C669.146 771.468 668.782 747.419 669.338 723.095C669.504 715.695 669.151 707.833 669.608 700.496C654.101 701.848 632.287 700.075 616.743 699.326C607.19 698.869 595.89 699.742 586.759 699.051C587.274 710.21 587.014 722.408 586.988 733.635C587.014 749.572 586.905 765.515 586.66 781.452C586.436 793.084 585.958 804.456 586.53 816.098C586.754 820.643 586.546 805.499 587.248 809.971C589.983 812.046 649.432 810.845 658.657 811.36C660.139 811.443 668.158 811.412 670.009 811.162Z" fill="#FE7F8E"/>
<path d="M315.205 65.5938C325.405 69.8768 324.762 110.812 323.767 121.077C320.397 155.837 301.303 190.498 298.563 225.043C296.802 247.236 312.146 278.407 313.385 301.274C314.775 326.94 307.199 351.172 305.638 376.561C304.484 389.252 306.009 407.576 314.368 417.654C319.988 424.428 345.282 424.711 350.941 417.071C353.04 414.238 361.089 405.673 362.4 402.91C374.949 376.473 369.167 347.689 362.833 320.457C357.335 299.145 352.186 283.485 353.531 260.806C354.668 241.621 365.019 229.437 369.516 211.366C371.747 202.398 370.636 189.771 370.971 180.184C396.753 213.028 381.361 251.269 386.451 288.615C388.48 303.503 399.859 317.98 403.113 333.953C405.529 345.809 405.736 359.573 410.537 370.321C413.903 377.858 432.356 381.064 439.157 376.681C480.162 346.152 464.965 289.652 449.714 249.439C446.121 239.964 446.016 223.389 448.141 213.418C454.881 181.788 478.189 156.147 493.493 128.672C497.217 121.962 497.703 102.458 499.512 93.8729L499.696 93.0206C506.854 101.043 509.318 107.539 511.341 117.81C515.89 140.902 511.257 154.166 504.49 175.162C494.157 207.847 482.811 238.994 497.84 272.4C504.855 287.994 522.183 311.858 542.526 302.19C567.939 290.111 570.862 257.969 568.574 233.42C568.272 230.17 565.36 216.853 566.073 214.826C568.704 215.102 577.461 225.245 579.25 227.586C607.206 264.131 583.888 310.228 584.564 350.612C584.72 359.667 595.428 365.44 603.686 365.96C622.656 367.156 633.004 354.666 640.087 338.865C655.812 310.956 651.444 271.682 644.096 241.718C636.566 211.012 626.109 178.022 635.594 146.539C639.151 134.743 646.738 127.952 655.76 120.15C652.765 140.375 653.592 175.492 663.046 193.183C676.26 217.913 689.624 231.838 692.339 261.823C695.157 286.737 687.404 313.571 677.575 336.389C667.294 360.25 664.247 378.578 663.555 404.7C663.493 407.089 648.49 413.443 645.142 415.726C631.059 425.325 627.211 439.742 624.128 455.569C616.8 456.93 596.644 457.177 588.579 457.222C568.147 457.922 547.638 457.232 527.222 457.203C504.825 457.17 482.623 459.032 460.202 457.632C454.529 457.278 447.407 456.979 441.844 457.463C439.262 432.105 427.969 414.073 402.42 407.945C387.636 404.399 372.784 407.775 359.862 415.444C343.5 425.155 342.876 440.301 338.835 456.792C309.159 463.298 278.76 453.168 252.175 475.241C240.095 485.376 231.53 499.07 227.705 514.367C219.249 547.794 225.421 572.071 224.563 604.685C223.269 653.906 221.752 702.94 222.459 752.224C222.796 775.706 221.906 799.401 222.395 822.868L223.018 846.439C223.085 849.642 223.445 852.398 223.142 855.585C222.994 855.601 222.847 855.637 222.697 855.637C220.167 855.617 188.358 838.447 184.704 836.086C180.163 833.159 175.887 829.623 171.788 826.108C158.004 814.273 152.586 799.074 144.608 783.412C140.505 775.358 135.589 767.319 130.09 760.143C124.13 752.369 117.58 744.596 110.926 737.415C106.939 733.115 102.577 729.121 98.9088 724.535C93.3888 717.635 88.8812 709.913 84.4403 702.295C81.0528 696.487 77.3123 690.565 74.68 684.366C62.4757 655.637 64.0404 623.825 71.095 594.082C72.6155 587.671 74.0045 581.098 75.9827 574.812C77.4736 570.075 79.6025 565.483 80.602 560.601C83.2473 547.684 81.3498 534.389 80.3914 521.425C83.1059 524.28 84.7798 527.499 86.939 530.723C98.9576 548.626 101.098 571.526 100.282 592.548C99.5817 610.592 96.2946 628.931 106.518 645.253C109.541 650.079 113.034 652.024 117.717 654.873C129.273 638.967 141.174 619.421 144.127 599.417C148.166 572.056 149.659 541.413 144.301 514.183C143.119 508.18 139.22 500.937 137.461 494.98C129.973 473.147 125.692 459.294 128.487 435.899C131.528 407.124 153.197 386.111 167.605 362.167C180.903 340.066 180.923 322.214 177.269 297.088C176.733 293.403 175.043 285.358 175.747 281.972C179.578 279.928 186.168 293.633 187.678 296.327C214.78 345.538 178.668 391.849 181.988 442.927C183.767 470.285 195.473 481.172 223.194 469.062C233.906 463.101 246.352 450.751 251.008 439.397C263.794 408.216 271.631 370.233 269.592 336.481C269.05 327.509 265.373 316.694 263.524 308.128C256.383 275.172 248.137 242.045 255.313 208.236C262.31 175.275 286.137 148.321 300.573 118.304C308.794 101.212 309.831 83.4691 314.976 66.3415L315.205 65.5938Z" fill="#A3E635"/>
<path d="M804.08 189.14L805.188 189.562C807.102 193.333 803.409 217.505 804.278 224.195C806.852 244.018 820.362 260.043 829.852 277.364C845.063 305.123 850.71 336.168 838.765 366.295C831.09 385.659 824.829 404.474 825.37 425.5C825.51 447.746 834.486 465.525 845.307 484.317C851.09 494.356 862.473 515.513 875.541 516.149C917.356 518.183 895.104 458.451 889.327 436.667C882.135 407.974 895.739 378.373 913.919 356.786C918.734 351.067 925.77 345.587 931.646 341.042C927.72 357.784 919.577 371.839 917.788 389.501C916.415 403.045 917.403 417.219 921.22 430.289C923.196 437.049 926.576 443.305 929.316 449.776C940.039 475.103 952.125 501.165 950.003 529.407C948.542 548.766 937.138 573.195 928.401 590.656C925.947 595.564 922.983 600.26 920.788 605.293C914.038 620.763 909.514 641.421 911.625 658.17C912.837 667.784 917.294 680.799 925.364 686.727C927.892 688.589 930.991 690.102 934.205 689.436C950.663 686.03 951.87 636.185 961.329 623.425C962.197 622.255 962.723 621.875 964.137 621.641C965.988 623.035 966.534 627.366 966.81 629.633C970.055 656.314 975.869 682.739 970.195 709.695C963.04 742.271 932.53 762.826 909.998 784.463C898.646 795.658 891.755 809.692 881.027 821.402C876.597 826.243 846.769 851.628 841.912 847.874C841.064 845.144 841.376 827.657 841.386 823.898C841.423 806.25 841.324 788.508 841.672 770.87C842.036 752.515 843.664 732.797 843.794 714.551C843.877 686.275 840.955 657.91 840.32 629.67C839.821 607.565 840.383 584.473 840.736 562.327C840.924 550.69 840.996 541.299 839.988 529.594C838.152 508.295 830.783 489.895 814.351 475.682C803.451 466.616 784.928 458.653 770.882 457.011C758.651 455.583 739.899 455.392 727.684 456.541C724.356 434.711 720.014 442.77 729.702 422.869C735.386 411.201 731.366 383.811 726.805 371.784C724.304 365.187 725.942 354.735 728.391 348.294C730.799 341.935 745.765 305.62 751.569 304.477C754.897 307.167 755.24 325.538 754.32 330.024C749.665 352.693 745.334 370.812 773.597 379.834C779.39 378.269 783.602 376.107 788.147 372.097C792.874 367.924 799.254 355.998 800.684 350.19C804.6 334.293 797.986 314.87 792.999 299.652C783.898 271.895 774.803 243.424 787.538 214.977C792.707 203.217 794.158 198.002 804.08 189.14Z" fill="#A3E635"/>
<path d="M386.506 438.525C399.825 436.359 408.15 444.785 409.425 457.597C410.248 465.853 409.963 474.287 410.148 482.581C410.452 496.167 412.018 510.384 406.949 523.355C404.459 529.693 400.637 532.153 394.694 534.576C368.214 536.203 369.747 517.222 369.982 497.789C370.183 481.258 367.852 462.613 374.072 446.839C375.922 442.148 382.082 439.72 386.506 438.525Z" fill="#FE7F8E"/>
<path d="M673.212 438.004C682.448 437.501 692.728 442.783 694.029 452.597C696.311 469.789 694.944 488.061 695.474 505.497C695.885 519.115 692.869 531.55 677.658 534.425C651.169 534.155 655.875 510.014 655.485 491.136C655.552 476.605 653.467 460.322 658.86 446.533C660.81 441.546 668.719 439.247 673.212 438.004Z" fill="#FE7F8E"/>
</svg>