<svg width="1277" height="1277" viewBox="0 0 1277 1277" fill="none" xmlns="http://www.w3.org/2000/svg">
<rect width="1277" height="1277" rx="108" fill="#151518"/>
<path d="M483.611 402.267C488.248 403.488 494.48 406.666 499.483 408.341C515.306 413.638 532.032 418.588 548.641 419.382C575.944 420.686 601.415 412.66 627.918 407.368C638.659 405.224 650.825 404.513 661.89 402.572C720.342 392.322 797.786 386.144 852.318 414.739C867.363 422.628 885.188 443.091 889.481 459.828C892.166 470.299 894.043 481.512 897.315 492.921C897.88 488.149 899.174 457.202 899.903 455.948L902.399 457.035C908.041 464.381 908.671 468.804 911.813 477.043C924.299 509.772 915.35 542.383 896.336 570.778L893.956 570.523L892.845 569.024C893.739 565.6 893.944 564.597 894.186 561.074L894.237 560.243C896.539 551.497 897.835 547.775 897.785 538.62C876.343 599.513 818.365 625.589 764.89 647.325C755.68 651.069 745.318 654.061 736.736 659.054C748.464 657.952 800.879 648.078 805.963 651.985C801.948 655.918 797.294 656.737 795.721 660.64C798.47 663.172 821.148 664.421 826.891 665.808C902.232 684.007 956.583 711.812 955.657 800.763C966.146 772.212 968.383 750.886 956.523 721.708C953.58 714.467 950.367 709.767 947.448 703.478C970.85 721.491 988.13 738.96 992.137 769.823C997.038 807.569 983.61 839.675 962.141 869.183C953.645 880.859 943.723 892.603 937.837 905.589C965.772 897.43 975.929 890.275 995.981 866.855C1000.37 861.73 1007.7 851.975 1012.63 847.719C984.633 942.477 891.016 1019.51 810.199 1065.49C788.462 1077.85 766.915 1085.15 744.052 1094.12C751.025 1077.87 757.55 1069.4 762.017 1051.35C720.065 1107.61 688.93 1143.26 625.125 1174.41C612.833 1180.42 600.533 1186.68 587.255 1189.89C605.634 1169.89 626.912 1152.65 636.915 1125.61C643.123 1108.83 649.554 1089.37 635.241 1075.16L630.989 1070.91C631.492 1068.2 631.788 1068.11 633.798 1066.12C635.383 1053.23 597.615 1048.74 588.13 1047.67C576.716 1046.39 563.712 1047.58 552.158 1047.09C544.211 1046.75 536.074 1043.14 528.085 1042.73C459.18 1044.24 402.356 1082.83 341.563 1111.55C338.61 1112.95 330.932 1125.61 326.061 1129.19C296.301 1151.02 267.178 1171.65 241.018 1198.33C235.37 1204.09 226.934 1212.57 220.635 1217C224.305 1207.03 230.002 1197.86 235.017 1188.56C257.383 1147.1 283.254 1113.07 315.5 1079.58C330.975 1063.5 355.731 1040.74 367.053 1022.57C352.293 1032.62 308.773 1067.95 293.077 1072.33C287.529 1071.86 285.475 1075.86 280.725 1071.2C294.457 1057.23 315.568 1036.21 327.828 1020.74C365.824 972.784 397.339 907.297 409.888 846.243C412.228 834.858 413.667 822.385 414.452 810.79C414.911 804.028 412.537 789.093 415.047 783.876L416.755 784.342C425.229 796.888 429.042 823.018 434.084 837.994C437.01 796.16 449.339 764.51 442.133 721.222C437.923 695.926 409.453 678.375 410.057 667.595C417.123 659.102 444.971 665.553 454.066 669.181C455.328 653.98 453.45 635.637 455.818 619.977C458.175 604.387 463.158 593.035 464.101 576.713C465.832 546.788 456.313 513.646 440.691 488.714C436.878 482.629 428.6 473.744 423.694 467.882C453.45 480.412 465.869 501.158 481.355 527.747C472.316 481.981 461.419 467.06 423.002 441.588C403.534 428.68 384.267 417.57 361.657 411.678C359.486 411.113 358.508 409.614 357.756 407.656C357.938 407.577 358.799 407.13 358.961 407.127C388.472 406.318 426.073 407.357 454.431 414.536C474.81 419.696 489.351 427.226 504.661 435.505C498.888 421.06 492.734 414.368 483.611 402.267ZM637.19 947.979C641.022 949.598 642.007 949.272 644.256 952.212C634.729 961.701 627.59 968.929 617.06 977.242C672.185 967.264 733.868 951.239 776.773 910.832C799.987 889.156 814.052 858.697 815.875 826.148C820.308 734.782 715.844 712.972 647.193 712.966C619.401 712.965 570.836 711.784 549.222 729.289C535.943 740.046 537.129 811.653 533.174 830.499C529.068 853.675 523.66 875.234 520.844 898.42C519.21 912.586 523.446 928.779 523.271 943.013C523.158 959.986 506.012 971.304 495.216 981.686C533.701 977.25 599.554 959.872 637.19 947.979ZM545.429 651.781C552.599 643.612 571.599 622.945 581.313 618.88L582.054 620.191C580.305 625.418 567.636 647.432 563.958 654.097C568.891 652.488 574.253 650.607 579.204 649.228C592.263 646.617 604.894 641.087 618.365 638.14C666.492 627.613 740.375 608.822 769.687 563.339C779.723 547.934 783.346 528.905 779.719 510.637C771.146 466.385 718.935 451.214 681.777 454.704C657.209 456.292 585.341 462.917 580.884 494.683L581.651 496.51C587.572 494.693 589.597 489.242 592.692 490.566C593.14 494.993 585.261 506.464 584.408 513.1C578.034 562.745 561.133 604.94 545.429 651.781Z" fill="#FE7F8E"/>
<path d="M635.635 948.608C642.929 945.626 650.263 942.756 657.635 940C653.133 944.685 648.478 950.035 642.841 953C640.546 949.949 639.542 950.288 635.635 948.608Z" fill="#FD87A1"/>
<path d="M657.345 60C670.019 62.2595 682.334 83.4671 685.593 95.9641C698.972 147.26 640.848 174.175 656.011 226.762C660.521 242.402 666.373 250.552 683.753 247.706C690.944 246.528 696.419 235.136 699.624 229.184C698.652 210.693 699.455 181.326 713.909 168.287C715.784 166.595 718.759 164.667 721.234 164.946C721.401 170.79 715.245 176.317 714.042 185.412C711.725 202.933 726.868 224.39 723.541 240.287C715.589 272.38 682.608 285.156 676.978 319.338C674.458 334.631 679.122 348.106 695.604 353.142C701.006 354.793 706.83 350.446 711.187 347.589C729.155 335.812 719.226 317.757 726.677 300.79C743.547 269.022 783.026 268.48 769.867 220.907C765.138 203.808 755.115 192.094 758.304 172.906C761.977 150.809 774.542 137.399 791.078 124.757L793.708 125.917L793.762 124.992C793.546 130.261 790.269 136.963 788.583 141.608C780.689 163.356 778.763 178.896 791.482 198.713C800.073 212.095 805.736 237.252 802.94 253.421C797.075 287.341 757.227 309.103 780.648 345.802C786.524 348.441 792.591 351.108 798.964 349.457C817.789 345.132 812.491 329.519 816.018 318.431C826.363 285.915 859.212 273.186 852.137 232.035C851.494 228.299 850.4 227.163 852.533 223.92L854.243 224.24C870.221 244.564 875.258 271.365 865.503 295.653C856.994 316.838 845.221 330.135 855.507 353.692C867.432 362.115 877.148 362.71 888.546 351.773C907.903 333.201 914.582 314.986 916.18 287.863C921.828 301.73 927.203 316.123 927.089 331.553C926.929 353.498 907.538 377.03 917.887 399.17C919.231 402.045 919.495 402.827 921.939 403.689C926.22 399.037 926.14 393.872 930.421 391.02L931.635 391.99C926.358 417.844 925.297 427.572 923.515 454C914.439 428.108 909.377 422.476 888.129 406.983C878.771 396.353 877.483 393.689 872.747 380.011C846.155 389.72 829.012 385.333 813.761 360.305C803.393 366.875 785.959 374.124 773.819 372.861C760.718 371.498 755.141 364.348 747.487 354.719C730.184 366.319 717.906 374.191 697.697 364.933C673.626 383.632 651.472 387.685 636.614 354.677C616.561 376.738 594.768 385.093 569.094 367.156C553.292 388.482 535.701 398.798 517.076 372.749C495.891 389.377 476.173 391.997 455.592 372.917C455.383 373.341 455.171 373.766 454.958 374.189C442.691 398.399 398.716 402.013 412.164 360.552C423.667 325.085 449.681 315.083 467.131 284.44C475.666 269.456 468.958 249.608 473.397 241.805C476.084 242.653 476.694 244.214 478.148 247.159C496.16 279.635 485.682 293.24 473.449 324.428C461.863 353.967 488.805 365.898 512.339 356.187C516.359 354.528 522.747 345.296 525.776 341.454C550.426 310.181 513.29 281.804 519.111 248.527C523.224 216.836 541.133 210.243 549.193 179.947C554.016 161.822 543.973 134.253 545.213 128.924L548.141 129.178C576.746 160.588 577.942 182.344 562.102 221.907C548.129 256.808 574.51 258.199 578.765 284.99C580.225 294.186 568.896 320.524 575.163 329.738C588.203 348.905 613.744 338.496 622.441 320.093C648.748 273.798 600.954 245.205 615.416 198.732C623.918 171.411 640.421 156.677 655.949 134.27C671.425 111.895 668.366 84.0348 657.345 60Z" fill="#A3E635"/>
<path d="M894.409 560L894.354 560.835C894.097 564.377 893.88 565.385 892.931 568.827L894.11 570.333L896.635 570.589C888.816 584.143 873.919 600.535 860.635 609C875.001 586.998 882.195 586.819 894.409 560Z" fill="#FD87A1"/>
<path d="M292.635 1073.2C288.041 1077.22 271.349 1087.58 265.435 1089L264.635 1087.99C267.697 1082.17 275.258 1076.38 280.271 1072C285.025 1076.97 287.082 1072.7 292.635 1073.2Z" fill="#FD87A1"/>
<path d="M629.833 1072C628.037 1071.33 614.201 1060.93 611.635 1059.01C620.022 1058.76 625.615 1064.92 632.635 1067.33C630.63 1069.27 630.335 1069.36 629.833 1072Z" fill="#FD87A1"/>
</svg>