<svg width="1277" height="1277" viewBox="0 0 1277 1277" fill="none" xmlns="http://www.w3.org/2000/svg">
<rect width="1277" height="1277" rx="638.5" fill="#151518"/>
<path d="M507.797 408.99C511.591 409.99 516.689 412.593 520.783 413.964C533.729 418.303 547.414 422.356 561.003 423.007C583.342 424.075 604.182 417.501 625.866 413.167C634.654 411.411 644.608 410.829 653.662 409.24C701.486 400.845 764.849 395.786 809.467 419.204C821.776 425.664 836.36 442.423 839.872 456.13C842.069 464.705 843.605 473.888 846.282 483.231C846.744 479.324 847.803 453.979 848.399 452.953L850.441 453.843C855.058 459.859 855.573 463.481 858.144 470.228C868.36 497.032 861.038 523.738 845.481 546.993L843.534 546.784L842.624 545.557C843.356 542.753 843.524 541.931 843.722 539.046L843.764 538.365C845.647 531.203 846.707 528.154 846.667 520.657C829.123 570.526 781.687 591.881 737.934 609.681C730.399 612.747 721.921 615.198 714.899 619.287C724.495 618.384 767.379 610.298 771.539 613.498C768.254 616.719 764.447 617.389 763.16 620.586C765.409 622.659 783.964 623.682 788.662 624.818C850.305 639.723 894.774 662.494 894.016 735.34C902.598 711.958 904.428 694.494 894.725 670.598C892.317 664.668 889.688 660.819 887.3 655.669C906.447 670.42 920.585 684.726 923.864 710.002C927.874 740.914 916.887 767.208 899.321 791.373C892.37 800.935 884.252 810.553 879.437 821.188C902.292 814.506 910.603 808.647 927.009 789.466C930.598 785.27 936.596 777.28 940.635 773.795C917.724 851.398 841.129 914.482 775.005 952.136C757.221 962.265 739.591 968.238 720.885 975.589C726.59 962.276 731.929 955.344 735.583 940.564C701.259 986.632 675.785 1015.83 623.581 1041.34C613.524 1046.26 603.46 1051.39 592.597 1054.01C607.634 1037.64 625.043 1023.52 633.228 1001.37C638.307 987.631 643.569 971.695 631.858 960.057L628.379 956.581C628.791 954.359 629.033 954.288 630.677 952.656C631.974 942.1 601.073 938.424 593.312 937.55C583.974 936.497 573.334 937.472 563.881 937.071C557.379 936.794 550.721 933.837 544.185 933.503C487.808 934.736 441.316 966.342 391.576 989.862C389.159 991.005 382.878 1001.38 378.893 1004.3C354.544 1022.19 330.716 1039.08 309.312 1060.93C304.691 1065.64 297.788 1072.59 292.635 1076.22C295.637 1068.05 300.298 1060.54 304.402 1052.93C322.702 1018.98 343.868 991.105 370.251 963.675C382.913 950.512 403.168 931.872 412.431 916.992C400.355 925.221 364.747 954.154 351.906 957.743C347.367 957.357 345.685 960.635 341.799 956.82C353.034 945.376 370.307 928.165 380.338 915.493C411.426 876.218 437.21 822.587 447.478 772.587C449.393 763.262 450.57 753.048 451.213 743.552C451.588 738.014 449.646 725.784 451.699 721.51L453.096 721.892C460.029 732.167 463.15 753.566 467.275 765.831C469.669 731.571 479.756 705.65 473.861 670.2C470.416 649.483 447.122 635.11 447.616 626.281C453.398 619.327 476.183 624.609 483.623 627.581C484.657 615.132 483.119 600.109 485.057 587.284C486.986 574.517 491.062 565.22 491.835 551.854C493.25 527.346 485.462 500.205 472.681 479.786C469.561 474.803 462.788 467.526 458.774 462.726C483.119 472.987 493.281 489.977 505.951 511.753C498.555 474.272 489.64 462.053 458.208 441.192C442.28 430.621 426.515 421.523 408.016 416.698C406.24 416.234 405.44 415.007 404.825 413.404C404.973 413.338 405.678 412.973 405.81 412.97C429.956 412.307 460.721 413.159 483.922 419.038C500.596 423.264 512.493 429.43 525.019 436.211C520.296 424.381 515.261 418.9 507.797 408.99ZM633.453 855.904C636.588 857.23 637.393 856.962 639.234 859.371C631.439 867.142 625.598 873.06 616.983 879.869C662.084 871.698 712.553 858.574 747.657 825.482C766.65 807.73 778.157 782.786 779.649 756.129C783.276 681.305 697.806 663.444 641.637 663.439C618.898 663.438 579.163 662.47 561.479 676.807C550.614 685.616 551.584 744.259 548.349 759.693C544.989 778.673 540.564 796.328 538.26 815.317C536.923 826.918 540.389 840.18 540.246 851.837C540.154 865.737 526.125 875.006 517.292 883.508C548.78 879.875 602.659 865.644 633.453 855.904ZM558.375 613.331C564.242 606.641 579.787 589.715 587.735 586.386L588.341 587.46C586.91 591.741 576.544 609.769 573.536 615.228C577.571 613.91 581.958 612.369 586.009 611.24C596.694 609.102 607.028 604.573 618.05 602.16C657.427 593.539 717.877 578.149 741.859 540.901C750.071 528.285 753.034 512.701 750.067 497.741C743.053 461.5 700.335 449.075 669.933 451.934C649.832 453.234 591.031 458.66 587.384 484.674L588.011 486.171C592.856 484.683 594.513 480.219 597.045 481.303C597.411 484.929 590.965 494.323 590.268 499.758C585.052 540.414 571.224 574.97 558.375 613.331Z" fill="#FE7F8E"/>
<path d="M632.635 856.503C638.603 853.981 644.603 851.552 650.635 849.22C646.951 853.184 643.143 857.711 638.53 860.22C636.653 857.638 635.832 857.925 632.635 856.503Z" fill="#FD87A1"/>
<path d="M650.264 129.22C660.631 131.066 670.704 148.398 673.371 158.612C684.314 200.534 636.769 222.53 649.172 265.507C652.862 278.289 657.649 284.95 671.865 282.624C677.747 281.662 682.226 272.351 684.848 267.487C684.053 252.375 684.71 228.375 696.533 217.718C698.067 216.336 700.501 214.76 702.525 214.988C702.661 219.764 697.626 224.28 696.642 231.714C694.747 246.033 707.134 263.569 704.412 276.561C697.907 302.789 670.929 313.23 666.323 341.166C664.262 353.665 668.077 364.677 681.56 368.793C685.979 370.142 690.742 366.589 694.306 364.254C709.005 354.629 700.882 339.874 706.978 326.007C720.777 300.044 753.072 299.602 742.308 260.722C738.439 246.748 730.24 237.174 732.849 221.493C735.853 203.434 746.131 192.475 759.658 182.143L761.809 183.091L761.853 182.335C761.677 186.641 758.996 192.119 757.617 195.915C751.159 213.688 749.584 226.389 759.989 242.584C767.016 253.521 771.649 274.08 769.361 287.295C764.564 315.016 731.967 332.801 751.126 362.794C755.933 364.951 760.895 367.13 766.109 365.781C781.508 362.246 777.174 349.486 780.059 340.425C788.522 313.851 815.392 303.448 809.604 269.817C809.079 266.764 808.184 265.835 809.928 263.185L811.327 263.446C824.397 280.056 828.518 301.959 820.538 321.809C813.578 339.123 803.948 349.99 812.361 369.242C822.116 376.126 830.064 376.612 839.388 367.674C855.221 352.495 860.685 337.609 861.992 315.443C866.613 326.776 871.009 338.538 870.916 351.149C870.785 369.084 854.923 388.316 863.389 406.409C864.488 408.759 864.704 409.398 866.704 410.103C870.205 406.301 870.14 402.079 873.641 399.748L874.635 400.542C870.318 421.671 869.45 429.621 867.993 451.22C860.568 430.06 856.427 425.457 839.047 412.795C831.392 404.107 830.338 401.93 826.464 390.752C804.712 398.686 790.688 395.101 778.213 374.647C769.732 380.016 755.47 385.94 745.54 384.908C734.823 383.794 730.262 377.951 724 370.081C709.846 379.561 699.803 385.995 683.272 378.429C663.582 393.711 645.459 397.023 633.305 370.047C616.902 388.077 599.075 394.905 578.073 380.246C565.148 397.674 550.758 406.105 535.522 384.816C518.193 398.406 502.063 400.547 485.228 384.954C485.057 385.301 484.884 385.647 484.709 385.993C474.675 405.779 438.703 408.733 449.703 374.848C459.113 345.863 480.392 337.689 494.667 312.646C501.648 300.4 496.161 284.178 499.793 277.801C501.99 278.495 502.49 279.77 503.679 282.177C518.413 308.718 509.842 319.837 499.835 345.326C490.357 369.467 512.396 379.217 531.647 371.281C534.936 369.925 540.161 362.38 542.639 359.241C562.803 333.682 532.425 310.491 537.187 283.295C540.551 257.395 555.201 252.007 561.795 227.247C565.739 212.435 557.524 189.904 558.538 185.549L560.934 185.756C584.332 211.426 585.311 229.207 572.354 261.54C560.924 290.063 582.504 291.199 585.984 313.095C587.178 320.61 577.912 342.135 583.038 349.665C593.705 365.33 614.597 356.823 621.712 341.783C643.231 303.948 604.135 280.58 615.965 242.6C622.92 220.272 636.42 208.23 649.122 189.917C661.781 171.632 659.279 148.862 650.264 129.22Z" fill="#A3E635"/>
<path d="M843.841 538.22L843.797 538.902C843.59 541.793 843.415 542.616 842.651 545.426L843.601 546.655L845.635 546.864C839.336 557.928 827.335 571.309 816.635 578.22C828.208 560.259 834.002 560.113 843.841 538.22Z" fill="#FD87A1"/>
<path d="M351.635 958.211C347.861 961.521 334.15 970.049 329.292 971.22L328.635 970.389C331.15 965.593 337.361 960.827 341.479 957.22C345.384 961.316 347.073 957.796 351.635 958.211Z" fill="#FD87A1"/>
<path d="M627.367 957.22C625.912 956.654 614.712 947.856 612.635 946.226C619.424 946.018 623.952 951.232 629.635 953.269C628.011 954.911 627.772 954.983 627.367 957.22Z" fill="#FD87A1"/>
</svg>