<svg width="844" height="844" viewBox="0 0 844 844" fill="none" xmlns="http://www.w3.org/2000/svg">
<path d="M299.354 254.672C302.828 255.544 307.497 257.814 311.245 259.01C323.101 262.793 335.633 266.328 348.077 266.895C368.534 267.827 387.618 262.094 407.475 258.315C415.523 256.784 424.638 256.276 432.929 254.891C476.724 247.57 534.749 243.158 575.607 263.58C586.879 269.213 600.235 283.827 603.451 295.78C605.463 303.257 606.869 311.266 609.321 319.413C609.744 316.006 610.714 293.904 611.259 293.009L613.13 293.786C617.357 299.032 617.829 302.19 620.183 308.074C629.538 331.447 622.833 354.736 608.587 375.015L606.804 374.833L605.971 373.763C606.641 371.317 606.795 370.601 606.976 368.085L607.015 367.491C608.739 361.245 609.71 358.587 609.673 352.05C593.607 395.536 550.167 414.159 510.101 429.681C503.201 432.355 495.437 434.492 489.007 438.058C497.794 437.27 537.066 430.219 540.875 433.009C537.867 435.818 534.38 436.403 533.202 439.19C535.261 440.998 552.253 441.89 556.555 442.881C613.004 455.878 653.727 475.735 653.033 539.259C660.892 518.87 662.568 503.64 653.682 482.802C651.477 477.631 649.07 474.275 646.883 469.783C664.417 482.647 677.363 495.122 680.366 517.164C684.038 544.12 673.977 567.049 657.891 588.121C651.526 596.46 644.091 604.847 639.682 614.121C660.612 608.294 668.222 603.185 683.246 586.459C686.533 582.799 692.025 575.832 695.724 572.793C674.743 640.465 604.601 695.476 544.049 728.312C527.763 737.144 511.619 742.353 494.488 748.763C499.713 737.154 504.602 731.109 507.948 718.22C476.516 758.393 453.188 783.851 405.383 806.103C396.173 810.389 386.957 814.86 377.009 817.153C390.779 802.874 406.721 790.559 414.217 771.247C418.868 759.264 423.686 745.368 412.962 735.219L409.777 732.187C410.153 730.251 410.375 730.188 411.881 728.765C413.069 719.56 384.771 716.354 377.664 715.592C369.112 714.674 359.369 715.524 350.712 715.175C344.758 714.933 338.661 712.354 332.676 712.063C281.048 713.138 238.473 740.7 192.925 761.21C190.712 762.206 184.959 771.25 181.31 773.803C159.012 789.397 137.192 804.128 117.591 823.18C113.36 827.293 107.039 833.351 102.319 836.516C105.069 829.395 109.337 822.844 113.095 816.207C129.853 786.6 149.236 762.294 173.396 738.374C184.992 726.895 203.54 710.641 212.023 697.665C200.964 704.841 168.356 730.072 156.596 733.201C152.44 732.864 150.9 735.723 147.341 732.396C157.63 722.416 173.448 707.408 182.633 696.358C211.102 662.109 234.714 615.341 244.117 571.739C245.87 563.608 246.948 554.701 247.537 546.42C247.88 541.591 246.102 530.926 247.982 527.199L249.262 527.532C255.611 536.492 258.468 555.153 262.246 565.848C264.438 535.972 273.675 513.369 268.276 482.455C265.122 464.39 243.79 451.856 244.243 444.157C249.538 438.092 270.403 442.699 277.217 445.29C278.163 434.434 276.755 421.334 278.53 410.15C280.296 399.017 284.029 390.91 284.736 379.254C286.033 357.883 278.901 334.214 267.196 316.409C264.339 312.063 258.137 305.718 254.461 301.531C276.755 310.48 286.061 325.295 297.663 344.285C290.89 311.6 282.727 300.945 253.942 282.753C239.356 273.535 224.92 265.601 207.98 261.394C206.353 260.99 205.62 259.919 205.057 258.521C205.193 258.464 205.838 258.145 205.96 258.143C228.071 257.565 256.244 258.308 277.49 263.434C292.76 267.12 303.654 272.497 315.125 278.41C310.799 268.094 306.189 263.314 299.354 254.672ZM414.423 644.394C417.293 645.551 418.031 645.317 419.717 647.417C412.578 654.194 407.23 659.355 399.34 665.292C440.642 658.167 486.858 646.723 519.005 617.866C536.398 602.385 546.936 580.633 548.301 557.388C551.623 492.139 473.354 476.563 421.917 476.559C401.094 476.559 364.707 475.715 348.512 488.216C338.563 495.898 339.452 547.037 336.489 560.495C333.412 577.046 329.36 592.443 327.25 609.001C326.026 619.118 329.2 630.682 329.069 640.848C328.984 652.969 316.137 661.052 308.048 668.466C336.884 665.298 386.224 652.888 414.423 644.394ZM345.671 432.863C351.043 427.03 365.279 412.27 372.557 409.367L373.112 410.304C371.802 414.037 362.309 429.758 359.554 434.518C363.249 433.369 367.267 432.025 370.977 431.04C380.761 429.176 390.224 425.226 400.318 423.122C436.377 415.604 491.734 402.184 513.696 369.703C521.215 358.701 523.929 345.111 521.212 332.066C514.789 300.463 475.67 289.628 447.829 292.121C429.422 293.255 375.575 297.986 372.235 320.672L372.81 321.976C377.246 320.679 378.764 316.786 381.082 317.732C381.418 320.893 375.515 329.085 374.876 333.824C370.1 369.278 357.437 399.412 345.671 432.863Z" fill="#FE7F8E"/>
<path d="M414.423 644.394C419.782 642.342 425.17 640.366 430.586 638.469C427.278 641.694 423.858 645.377 419.717 647.417C418.031 645.317 417.293 645.55 414.423 644.394Z" fill="#FD87A1"/>
<path d="M430.133 10.9229C439.605 12.5292 448.809 27.6058 451.246 36.49C461.245 72.9564 417.802 92.0908 429.135 129.475C432.506 140.594 436.88 146.388 449.87 144.364C455.245 143.527 459.337 135.428 461.732 131.197C461.006 118.051 461.606 97.1745 472.409 87.9046C473.811 86.702 476.035 85.3313 477.884 85.53C478.009 89.684 473.408 93.6131 472.509 100.079C470.777 112.535 482.095 127.789 479.609 139.09C473.665 161.905 449.015 170.987 444.806 195.288C442.923 206.16 446.409 215.739 458.728 219.32C462.766 220.493 467.118 217.403 470.375 215.372C483.805 206.999 476.384 194.164 481.953 182.102C494.562 159.518 524.07 159.133 514.234 125.313C510.699 113.157 503.208 104.829 505.591 91.1882C508.337 75.4795 517.728 65.9464 530.087 56.9588L532.053 57.7834L532.093 57.1258C531.932 60.8721 529.483 65.6365 528.223 68.9385C522.322 84.3992 520.883 95.447 530.39 109.535C536.81 119.048 541.044 136.932 538.953 148.427C534.57 172.541 504.786 188.012 522.292 214.102C526.684 215.977 531.218 217.873 535.982 216.699C550.052 213.625 546.092 202.525 548.729 194.643C556.461 171.527 581.012 162.478 575.724 133.223C575.244 130.568 574.426 129.76 576.02 127.455L577.298 127.682C589.241 142.131 593.006 161.183 585.715 178.45C579.355 193.511 570.556 202.964 578.243 219.71C587.156 225.698 594.418 226.121 602.937 218.346C617.405 205.143 622.397 192.194 623.591 172.912C627.813 182.771 631.83 193.002 631.745 203.972C631.626 219.573 617.132 236.302 624.867 252.041C625.872 254.085 626.069 254.641 627.896 255.254C631.096 251.946 631.036 248.274 634.235 246.247L635.143 246.937C631.199 265.317 630.406 272.232 629.074 291.02C622.29 272.614 618.507 268.61 602.626 257.596C595.632 250.038 594.669 248.144 591.129 238.421C571.254 245.323 558.44 242.204 547.041 224.412C539.292 229.083 526.261 234.236 517.187 233.338C507.396 232.369 503.228 227.286 497.507 220.441C484.574 228.687 475.397 234.283 460.292 227.702C442.301 240.995 425.743 243.876 414.637 220.411C399.65 236.094 383.361 242.033 364.171 229.282C352.361 244.443 339.213 251.777 325.292 233.258C309.458 245.079 294.72 246.942 279.338 233.378C279.181 233.679 279.023 233.981 278.864 234.282C269.695 251.493 236.827 254.062 246.878 224.587C255.476 199.374 274.919 192.263 287.962 170.479C294.341 159.827 289.327 145.716 292.645 140.169C294.653 140.772 295.11 141.882 296.196 143.975C309.659 167.063 301.827 176.735 292.684 198.906C284.024 219.906 304.161 228.388 321.751 221.484C324.756 220.305 329.531 213.741 331.794 211.011C350.219 188.778 322.462 168.605 326.813 144.948C329.887 122.419 343.273 117.731 349.297 96.1937C352.902 83.3087 345.395 63.7098 346.322 59.9216L348.511 60.1018C369.89 82.4317 370.785 97.8982 358.946 126.024C348.502 150.835 368.22 151.824 371.399 170.87C372.491 177.407 364.024 196.131 368.708 202.681C378.454 216.307 397.544 208.907 404.044 195.824C423.707 162.913 387.984 142.587 398.793 109.549C405.148 90.1258 417.483 79.6509 429.089 63.7218C440.656 47.8156 438.37 28.0093 430.133 10.9229Z" fill="#A3E635"/>
<path d="M607.015 367.491L606.976 368.085C606.795 370.601 606.642 371.317 605.972 373.763L606.804 374.833L608.588 375.015C603.065 384.644 592.541 396.29 583.157 402.305C593.306 386.672 598.387 386.546 607.015 367.491Z" fill="#FD87A1"/>
<path d="M156.597 733.201C153.158 735.89 140.663 742.818 136.236 743.769L135.637 743.094C137.929 739.198 143.589 735.326 147.342 732.396C150.901 735.723 152.44 732.864 156.597 733.201Z" fill="#FD87A1"/>
<path d="M409.778 732.188C408.428 731.697 398.037 724.077 396.11 722.665C402.409 722.486 406.609 727.002 411.882 728.765C410.376 730.188 410.154 730.251 409.778 732.188Z" fill="#FD87A1"/>
</svg>