<svg width="1065" height="1041" viewBox="0 0 1065 1041" fill="none" xmlns="http://www.w3.org/2000/svg">
<path d="M315.275 62.9561C326.153 73.494 325.114 111.096 322.951 125.491C319.134 150.898 307.762 175.767 302.364 200.919C300.176 211.11 297.126 221.365 298.765 231.9C302.078 254.596 310.003 275.484 313.003 298.304C317.509 332.569 291.196 389.464 316.244 418.223C325.035 421.368 340.297 423.097 348.192 416.841C349.345 415.927 350.715 413.332 351.915 412.2C365.537 399.36 371.1 382.035 369.784 363.561C369.296 349.018 366.845 333.423 363.101 319.343C358.118 300.603 352.356 282.472 353.503 262.745C353.898 255.94 354.916 245.831 357.654 239.414C362.308 228.508 367.951 217.977 370.454 206.21C371.947 198.749 370.413 186.953 370.801 178.257C397.166 213.226 380.604 248.505 386.383 287.54C390.098 303.44 398.991 315.113 402.794 331.243C407.982 353.243 402.093 379.066 433.901 376.454C437.025 376.197 439.105 374.856 441.43 372.985C477.303 344.941 466.637 290.961 452.262 254.228C433.063 205.172 469.015 167.625 492.694 128.583C496.456 122.38 498.674 99.285 499.631 90.9887C500.586 92.0786 501.521 93.1867 502.435 94.3114C507.64 100.759 509.446 106.774 511.182 114.717C517.818 145.072 505.112 169.201 496.536 197.319C493.89 205.996 492.254 217.196 490.929 226.311C487.758 247.382 495.487 272.231 508.813 288.59C519.423 301.614 538.064 306.449 551.491 294.223C568.366 278.853 570.628 253.62 568.725 232.162C568.225 226.566 565.682 217.899 565.994 213.143L566.54 212.806C569.577 213.828 574.466 220.348 576.837 222.923C592.562 240.05 594.632 264.698 591.845 287.054C590.019 301.67 587.617 322.882 596.837 336.232C604.252 346.973 623.139 345.499 631.491 336.619C634.632 333.281 637.013 329.996 639.406 326.03C647.908 316.291 651.215 303.536 651.111 290.473C650.456 273.992 648.756 255.479 644.179 239.583C637.138 215.147 631.465 190.439 632.11 164.824C632.302 157.341 634.049 149.325 636.379 142.16C639.697 131.969 647.986 125.13 655.703 118.152C653.155 136.851 653.108 166.345 659.988 183.874C669.666 208.521 689.338 227.348 691.74 255.247C693.254 271.549 693.259 288.397 688.703 304.237C678.761 338.779 665.786 375.61 691.017 407.258C697.991 416.005 714.309 418.383 722.578 409.863C733.675 398.434 728.36 380.299 729.723 366.016C730.549 350.074 739.561 312.451 751.693 301.837L752.234 301.371C759.905 321.832 742.494 378.919 782.453 373.838C788.875 373.021 797.637 357.573 799.681 351.448C807.06 329.31 793.654 302.336 787.7 281.145C779.026 253.035 778.313 228.432 792.115 202.264C794.189 198.332 800.336 188.812 804.387 187.523L805.281 188.061C806.077 190.89 805.437 195.219 805.328 198.214C804.845 211.46 802.12 219.69 806.358 232.623C810.482 245.219 814.855 249.531 821.022 260.208C824.683 266.542 832.395 278.799 835.021 284.892C842.244 302.95 847.523 325.543 844.08 344.874C841.043 361.908 831.6 378.578 827.923 394.949C825.359 406.392 824.278 426.513 827.029 437.866C831.86 457.779 842.785 478.849 853.472 496.222C857.517 502.555 866.878 513.668 874.376 514.161C880.715 514.577 884.948 514.981 890.409 511.054C912.203 493.566 894.153 456.737 889.415 434.918C882.624 403.606 896.415 373.825 917.32 351.286C921.157 347.146 926.748 343.323 931.293 340.002C926.789 356.499 920.06 368.938 917.954 386.248C914.662 413.343 920.086 427.975 931.126 451.803C942.416 476.167 953.607 507.4 949.067 534.404C946.014 552.546 935.546 572.176 928.328 589.07C924.657 597.317 921.121 600.504 917.928 610.904C911.033 632.405 906.56 654.728 917.808 675.719C920.575 682.177 929.868 690.497 937.34 686.249C951.048 678.46 953.445 625.692 963.206 620.185C969.576 621.662 972.384 682.822 972.317 690.086C971.932 732.028 938.11 756.831 909.904 782.138C900.242 790.801 892.842 804.654 884.798 814.897C872.052 830.824 851.756 842.763 833.976 852.736C857.98 803.634 818.651 778.94 790.617 745.625C787.429 741.84 783.404 734.352 780.768 729.886C741.35 663.021 765.131 582.216 740.243 511.192C720.945 457.841 684.044 416.209 633.139 391.229C622.765 386.138 612.058 383.514 602.531 378.802L601.751 378.411C598.745 372.316 596.54 364.758 593.384 357.905C587.398 344.206 568.21 330.02 554.533 325.771C533.483 319.23 506.705 322.409 489.815 337.331C482.428 343.857 479.687 344.34 474.155 354.107C470.305 360.906 467.12 371.441 462.552 377.859C452.116 384.057 439.636 387.009 428.955 392.942C409.363 403.825 389.131 415.747 374.339 432.882C369.216 438.816 361.861 444.794 357.23 451.141C343.753 469.61 332.38 490.005 324.619 511.54C316.025 540.831 311.593 572.644 310.247 603.135C308.959 632.306 309.048 661.056 301.454 689.603C299.678 696.284 295.838 705.03 293.17 712.149C288.587 724.384 279.792 738.023 272.368 748.932C264.958 757.679 255.737 764.651 248.364 774.557C238.992 787.151 230.002 792.517 225.672 808.824C220.988 826.467 222.658 836.627 231.125 852.445C230.473 854.14 230.696 854.301 231.885 855.84C230.229 858.341 231.186 856.506 229.417 857.645C223.436 855.388 216.247 850.516 210.395 847.547C201.07 843.148 192.636 839.081 184.158 833.336C166.809 821.574 157.711 811.002 149.579 791.55C145.338 781.405 138.279 768.957 131.68 759.925C126.306 752.572 118.812 744.403 112.811 737.321C99.8822 726.573 93.0013 713.038 84.2458 699.722C65.2978 670.909 63.1756 639.055 68.0362 605.865C69.0477 598.96 71.6556 591.056 73.0737 584.104C74.6826 576.216 77.0835 569.201 80.0918 561.75C82.9332 548.168 82.1548 532.569 80.3092 518.895C97.3326 540.441 101.573 565.104 100.178 591.914C98.9597 615.344 94.8297 638.655 117.921 652.866C122.284 645.649 131.65 633.507 134.569 626.711C137.145 620.711 143.51 602.412 144.432 595.736C148.103 569.139 149.914 534.68 143.591 508.483C142.9 505.62 138.6 495.726 137.384 492.245C130.321 472.025 126.4 458.409 128.257 436.997C131.779 396.381 162.969 378.311 175.986 342.821C181.051 327.408 179.248 310.038 177.431 294.194C177.064 290.998 173.906 280.915 176.526 279.233C179.756 280.137 184.118 288.081 185.86 291.132C204.592 323.945 197.858 353.815 188.476 387.676C183.482 409.666 177.91 432.798 184.493 455.09C186.824 462.982 187.844 468.905 196.557 470.859C206.618 473.193 217.193 471.452 225.974 466.016C243.569 454.888 251.337 440.053 257.112 420.908C265.552 392.927 272.318 364.206 269.476 334.722C268.531 324.915 265.745 315.797 263.653 306.231C256.048 273.227 248.091 239.044 255.478 205.173C262.125 174.7 283.956 148.826 298.223 121.698C307.454 104.148 310.943 82.2094 315.275 62.9561Z" fill="#A3E635"/>
<path d="M528.257 354.279C536.213 353.198 548.262 355.376 554.466 360.631C571.039 374.659 570.602 385.607 573.004 404.731C607.695 412.783 635.734 423.889 662.006 448.783C678.355 464.277 688.589 478.228 698.984 498.25C705.183 510.196 710.419 521.774 713.919 534.815C717.866 549.541 719.244 565.234 720.617 580.35C725.053 629.306 723.384 680.924 743.534 726.735C748.381 737.742 753.893 748.719 761.121 758.365C766.977 766.175 773.295 774.011 779.806 781.275C790.029 792.678 810.06 808.891 810.112 825.333C810.128 830.377 807.986 835.15 804.392 838.665C800.092 842.867 791.152 844.24 785.37 844.666C774.912 845.441 764.475 844.099 754.028 843.995L686.499 843.486C671.194 843.392 655.609 844.359 640.352 843.969C605.729 843.085 571.075 845.139 536.551 845.129C518.848 845.784 499.67 845.378 481.909 845.29L379.659 844.385C353.648 844.188 328.509 846.673 302.612 845.607C293.807 844.598 269.058 845.586 262.634 840.387C239.97 822.031 272.122 796.152 282.214 784.411C292.492 772.456 302.45 761.994 308.617 751.418C324.156 724.322 335.559 693.341 338.217 662.07C342.502 611.637 339.578 560.029 358.049 511.871C361.632 502.526 369.575 490.807 374.138 481.503C378.191 473.238 387.617 464.076 393.806 457.171C422.024 426.866 452.628 414.244 492.111 404.835C493.347 390.49 493.656 379.547 502.878 367.634C509.783 358.715 517.364 355.651 528.257 354.279ZM392.244 600.041C401.503 597.53 402.328 591.904 402.911 583.329C405.759 541.284 425.364 501.759 462.041 479.447C471.576 473.646 491.828 469.001 485.745 454.02C483.399 448.242 476.892 444.946 470.812 445.891C464.57 447.736 458.551 450.263 452.863 453.428C446.192 457.213 419.912 477.288 415.451 482.842C396.154 506.869 380.972 535.049 378.289 566.253C376.949 581.832 369.265 601.092 392.244 600.041Z" fill="#FE7F8E"/>
<path d="M589.593 875.386C591.782 875.344 607.643 874.05 607.575 877.565C606.66 927.394 556.312 958.65 510.102 944.756C502.872 942.583 496.19 938.979 489.498 935.022C486.779 932.693 483.26 930.207 480.874 927.696C464.966 910.973 460.292 898.166 456.951 876.306C473.17 875.479 493.073 876.701 509.688 876.384C536.343 875.869 562.937 875.557 589.593 875.386Z" fill="#FE7F8E"/>
<path d="M229.417 857.645C231.186 856.506 230.229 858.342 231.885 855.841C230.696 854.302 230.473 854.14 231.125 852.445C234.187 856.881 236.818 858.68 240.835 862.237C237.009 860.968 232.996 859.517 229.417 857.645Z" fill="#BBD05C" fill-opacity="0.964706"/>
</svg>