<svg width="844" height="844" viewBox="0 0 844 844" fill="none" xmlns="http://www.w3.org/2000/svg">
<path d="M526.852 403.386C543.308 402.896 622.339 400.199 632.206 406.246C636.296 408.754 639.148 416.193 640.165 420.613C642.784 431.997 641.078 455.768 641.032 468.475L640.647 565.604L640.137 690.857C640.026 711.708 640.567 733.165 639.355 753.902C639.001 759.959 637.252 763.463 634.091 768.514C622.041 774.285 597.176 772.472 583.109 772.467L521.517 772.546L321.541 772.648C301.032 772.56 280.523 772.592 260.015 772.744C248.636 772.787 237.545 773.201 226.177 772.173C207.752 771.046 204.788 755.536 204.78 740.093C204.721 634.459 203.558 528.746 204.537 423.145C204.633 412.778 212.137 405.077 222.63 404.739C234.327 404.363 245.927 404.421 257.791 404.462L320.482 404.643C365.032 404.918 409.585 404.651 454.129 403.844C478.407 403.633 502.551 403.986 526.852 403.386ZM426.062 660.961C426.099 672.808 424.269 726.675 430.237 733.112C432.912 735.997 437.737 736.519 441.443 736.481C443.527 736.459 446.942 736.403 448.535 734.893C451.208 732.358 452.198 728.27 452.671 724.755C454.242 713.093 452.861 700.007 452.77 688.183C452.567 661.728 452.93 635.261 453.038 608.805C453.093 595.255 451.815 580.16 453.659 566.785C453.927 564.848 454.274 564.065 455.62 562.708C457.879 563.224 457.036 562.773 458.758 564.711C461.557 574.396 459.841 604.95 459.782 616.323C459.757 621.185 459.287 626.784 460.346 631.541C460.782 633.504 461.225 634.401 462.943 635.435C465.468 636.953 470.604 636.868 473.33 636.016C475.229 635.422 476.735 634.474 477.652 632.658C479.547 628.904 479.316 546.013 476.576 538.663C474.234 532.382 468.404 527.716 462.395 525.156C451.547 520.534 410.431 521.052 396.767 522.289C392.748 522.432 389.943 522.59 386.057 523.477C366.58 527.92 365.073 550.167 366.485 566.905C367.437 578.195 364.187 627.478 368.829 634.631C371.867 637.301 381.794 638.027 384.046 634.265C389.933 624.432 382.115 568.656 388.998 563.264L390.594 563.258C395.303 568.105 391.349 690.082 392.584 704.877C393.451 715.256 387.045 737.678 406.579 736.688C409.151 736.558 413.928 735.121 415.715 732.907C423.755 718.888 414.283 644.503 422.863 636.437C426.979 638.944 426.109 655.94 426.062 660.961ZM486.118 541.124C482.604 554.572 488.482 579.96 488.805 594.123C489.769 636.485 489.418 678.934 489.216 721.299C489.188 727.284 491.567 734.47 498.609 735.091C508.059 735.665 511.45 732.051 512.897 723.558C515.254 709.721 510.633 655.417 515.051 645.826L517.323 644.642C521.413 647.245 520.326 661.636 520.305 666.672L520.38 705.23C520.407 717.624 517.313 741.892 538.786 733.956C542.551 730.723 544.282 728.439 544.215 723.117C544.078 712.261 543.98 701.309 543.979 690.466C543.873 665.61 543.958 640.753 544.234 615.898C544.304 605.908 543.062 587.487 546.245 579.277L547.013 578.863C552.362 590.052 545.546 625.965 550.038 639.579C551.909 645.249 565.947 644.656 566.233 638.922C567.482 613.787 567.169 588.177 566.321 563.01C565.965 550.63 557.567 543.396 545.567 541.685C526.565 538.976 505.116 542.902 486.118 541.124ZM324.527 709.043C324.61 700.238 323.652 650.637 327.367 646.013L328.989 645.373C333.001 648.292 331.841 664.917 331.824 670.432L331.693 706.74C331.685 714.481 330.482 727.301 336.663 732.577C341.427 736.643 352.037 735.524 353.887 730.534C357.704 720.243 355.694 693.5 355.68 682.623C355.643 651.912 355.666 623.163 355.778 592.627C355.768 585.274 357.85 574.643 358.595 566.998C359.415 558.587 358.859 549.152 359.645 541.12C344.187 541.102 326.809 540.714 311.504 541.404C301.751 541.581 291.797 541.623 284.477 549.168C281.223 552.521 279.418 556.665 278.502 561.208C276.244 572.417 277.804 585.748 277.867 597.158C277.924 607.409 277.444 617.716 277.766 627.957C277.9 632.252 277.657 640.006 281.076 642.961C282.446 644.146 284.259 644.574 286.037 644.384C288.92 644.077 291.368 642.632 293.106 640.328C297.1 635.034 295.678 599.151 295.706 590.514C295.716 587.486 294.996 582.14 296.146 579.492C296.706 578.202 297.44 578.062 298.631 577.588L299.806 578.146C301.091 582.711 300.666 609.231 300.679 615.434L300.717 698.879C300.703 711.26 295.769 738.567 316.627 735.172C326.062 733.637 324.404 716.036 324.527 709.043ZM426.363 514.409C444.344 512.442 457.368 496.334 455.525 478.34C453.682 460.346 437.665 447.211 419.658 448.929C401.475 450.663 388.183 466.874 390.043 485.044C391.904 503.216 408.206 516.395 426.363 514.409ZM519.16 534.361C535.263 533.121 547.415 519.226 546.502 503.102C545.588 486.977 531.944 474.545 515.804 475.131C505.067 475.521 495.381 481.684 490.48 491.244C485.578 500.804 486.227 512.267 492.177 521.212C498.127 530.157 508.448 535.187 519.16 534.361ZM333.454 533.908C349.464 530.943 360.087 515.621 357.25 499.588C354.412 483.554 339.175 472.81 323.119 475.519C306.883 478.261 295.989 493.707 298.859 509.923C301.729 526.137 317.263 536.908 333.454 533.908Z" fill="#FE7F8E"/>
<path d="M422.535 24.2339C424.38 25.8746 421.791 35.9207 421.252 38.7904C419.743 46.8335 419.188 54.2844 418.65 62.3721C417.312 82.4701 430.273 96.9014 438.317 113.99C446.868 132.494 450.68 155.183 444.698 175.063C436.552 202.133 419.921 225.659 409.96 252.085C399.299 280.367 399.256 322.343 433.223 333.591C440.984 331.915 447.139 328.45 452.314 322.361C467.506 304.487 457.729 277.048 456.414 256.907C455.024 235.632 470.787 210.466 476.018 190.331C477.207 185.755 476.26 171.09 478.01 169.071L479.39 169.692C492.872 188.398 490.011 209.437 484.894 231.289C481.202 247.058 480.319 274.611 504.348 275.263C510.019 275.416 516.142 271.228 519.733 266.913C524.917 260.688 527.986 252.336 530.171 244.569C543.759 203.684 518.277 169.213 514.81 129.025C512.452 101.689 519.904 84.5333 537.177 63.8708C533.891 77.887 534.91 81.9625 534.332 95.0318C532.171 143.9 572.281 163.144 573.076 210.561C575.036 234.54 562.762 252.877 555.442 274.486C550.928 291.138 548.848 310.452 552.149 327.436C554.441 339.229 561.837 351.379 575.488 347.022C592.168 341.699 587.116 316.997 592.298 304.451C596.725 293.734 603.291 282.987 609.013 272.81C609.573 284.651 608.712 296.884 609.596 309.321C610.922 331.229 626.586 340.98 642.814 323.364C650.68 314.306 649.371 300.838 648.213 290.034C644.859 258.769 618.32 232.906 623.667 200.59C625.932 186.902 632.378 175.106 640.955 164.251C642.202 162.672 642.861 161.898 644.774 161.761C646.126 165.018 639.676 195.73 643.31 207.829C651.041 233.568 668.345 241.391 673.265 269.233C678.149 296.877 669.683 316.905 668.878 343.632C668.335 361.698 680.309 376.814 682.561 394.149C684.708 411.35 677.931 426.645 679 443.842C680.194 463.053 701.81 468.101 711.623 452.77C726.648 429.295 715.644 402.24 710.216 377.763C704.059 349.997 714.836 329.227 730.271 307.168C729.669 323.363 725.138 336.838 728.58 353.746C733.227 376.576 750.231 394.68 752.03 418.064C752.464 423.706 752.294 432.361 751.246 437.889C746.965 460.45 731.005 479.644 719.481 498.923C710.795 513.717 702.404 529.011 698.124 545.748C695.032 557.837 690.844 574.396 701.589 583.939C703.414 585.559 707.608 587.744 710.029 586.997C729.868 580.872 733.787 553.492 740.986 537.03C744.363 529.067 746.009 525.725 751.029 519.741C747.389 546.142 751.767 562.958 750.308 588.251C748.418 621.045 718.959 645.019 697.436 665.838C688.273 674.702 683.109 683.402 671.904 693.202C670.954 635.964 670.685 578.718 671.099 521.474L671.471 464.405C671.684 441.542 675.986 396.709 654.103 382.56C645.718 377.857 636.452 374.934 626.885 373.977C607.786 372.148 581.48 372.814 561.795 372.778L452.044 372.802L307.375 372.888C288.113 372.793 266.77 371.187 248.616 371.669C230.679 372.145 201.296 371.642 189.66 385.56C183.072 392.77 176.947 404.216 175.908 414.253C170.998 461.709 173.696 512.303 174.049 560.018L174.063 649.714C174.014 667.085 173.499 683.614 174.198 701.022C168.606 691.081 154.096 669.492 146.492 661.626C135.404 650.158 122.972 639.811 112.54 627.361C81.9434 590.843 91.1274 566.925 94.2679 525.226C109.585 547.201 102.609 576.116 128.905 591.742C152.858 592.786 153.236 573.806 154.047 555.3C156.059 509.379 105.288 487.1 95.6441 449.972C86.633 415.278 105.599 394.927 90.0637 356.748C92.6608 358.992 95.1309 361.25 97.5233 363.582C110.67 376.455 113.876 395.69 114.243 413.472C114.516 426.631 117.264 443.437 131.72 448.617C135.126 449.837 142.03 449.885 144.946 447.667C173.017 426.318 145.175 379.428 137.697 353.642C134.509 343.382 133.895 338.62 133.485 328.621C132.384 301.781 147.906 282.598 151.791 257.12C152.904 249.815 153.603 244.041 153.82 236.687C154.015 230.078 151.192 211.662 152.752 206.667L154.017 206.914C157.156 209.224 163.004 218.588 165.069 222.055C182.478 251.273 172.778 277.067 164.703 307.063C162.169 317.154 162.324 331.273 168.867 339.865C180.998 355.793 194.611 358.265 210.349 347.227C235.86 329.331 240.597 298.43 237.683 269.515C235.562 248.48 229.96 229.25 236.182 208.449C241.656 188.737 253.29 176.957 263.022 159.426C274.036 139.584 276.157 122.808 280.329 101.106C306.309 158.668 270.69 172.094 271.041 230.367C271.279 247.613 279.462 261.458 283.687 278.043C287.911 296.059 278.723 342.291 310.783 337.343C348.947 331.453 362.918 287.8 348.889 255.137C344.168 241.278 335.925 227.483 334.978 212.587C333.023 181.818 345.969 154.029 364.537 130.345C365.678 128.889 366.25 128.61 367.966 128.577C372.075 133.243 364.027 159.495 362.571 166.75C361.526 171.76 360.926 176.853 360.778 181.969C360.524 190.97 360.776 205.26 367.537 211.764C373.427 217.429 383.823 220.654 390.094 213.686C412.606 189.013 417.562 151.562 408.966 120.301C401.754 94.0735 392.554 73.0024 405.647 47.0177C410.903 36.5853 414.268 32.8352 422.535 24.2339Z" fill="#A3E635"/>
</svg>