<svg width="844" height="844" viewBox="0 0 844 844" fill="none" xmlns="http://www.w3.org/2000/svg">
<path d="M224.592 323.414C232.398 322.104 250.582 324.07 259.437 324.172L334.001 324.335C418.904 325.494 503.821 325.138 588.711 323.269C597.072 323.064 621.863 324.032 630.292 326.007C632.098 326.43 636.908 331.178 638.591 332.788C643.176 346.739 641.505 427.186 641.252 446.883L639.835 571.166C639.35 636.601 641.091 702.142 638.48 767.585C638.185 774.972 637.194 778.637 634.536 785.387C627.793 791.071 621.425 790.954 612.865 791.819C612.519 791.889 612.173 791.943 611.825 791.998C601.653 793.539 569.227 792.449 558.166 792.301L464.044 791.515L312.232 791.235C282.991 791.297 254.187 793.127 224.843 790.9C211.839 790.682 199.409 786.836 198.555 771.624C195.768 722.024 199.333 671.728 199.176 622.164L198.408 432.061L198.424 370.658C198.447 361.109 198.345 351.535 198.427 341.986C198.56 326.702 212.426 324.709 224.592 323.414ZM355.295 488.685C345.184 499.329 338.745 508.329 329.739 519.885L294.724 564.727C290.859 559.451 286.861 554.409 282.955 549.156C278.578 543.27 273.156 534.001 268.45 528.865C256.353 538.257 248.054 541.629 237.188 549.309C246.003 561.062 256.882 571.957 264.798 584.358C265.18 584.956 265.004 584.728 265.577 585.229C272.305 592.412 288.655 618.863 295.528 619.372C304.795 611.421 324.474 582.092 333.147 570.862C347.787 551.905 371.627 524.932 383.699 505.381C378.499 502.014 360.502 490.25 355.295 488.685ZM294.718 697.205C288.601 689.427 272.927 668.48 266.71 662.409C259.036 669.671 246.689 677.093 237.011 681.415C244.316 693.709 259.355 707.225 266.348 718.436C270.668 724.972 288.864 749.658 294.572 752.533C295.898 752.45 297.149 752.492 297.978 751.124C311.245 729.208 328.826 710.189 343.429 689.468C356.051 671.556 370.328 655.789 383.086 638.42C378.883 635.643 358.778 621.744 355.815 620.335C343.373 629.105 305.859 683.161 294.718 697.205ZM269.728 397.512C260.785 403.232 248.192 411.717 238.587 415.526C247.122 428.569 262.071 442.89 269.242 454.94C275.971 462.301 288.388 484.082 295.206 485.784C300.657 482.03 309.733 468.193 314.684 462.188C339.186 432.479 360.805 401.775 385.176 371.87C375.942 366.193 365.301 361.12 355.559 356.194C335.152 376.046 317.603 404.124 299.154 425.77C297.928 427.208 296.449 428.751 294.566 428.969C291.161 426.272 274.638 403.309 269.728 397.512ZM498.862 418.465C477.35 419.27 455.73 418.928 434.204 418.892C423.803 418.875 412.687 418.1 402.379 419.337C398.965 419.747 394.544 420.287 392.099 422.969C389.216 426.131 388.583 430.414 388.877 434.538C389.128 438.074 389.487 442.738 392.427 445.162C398.812 450.426 474.832 445.878 489.93 447.255C506.146 448.091 520 447.637 536.179 447.515C552.513 447.392 580.474 451.461 595.786 445.732C596.437 440.692 599.285 428.048 595.945 423.919C590.322 416.968 515.823 418.311 503.167 418.33C501.731 418.345 500.296 418.39 498.862 418.465ZM400.016 684.003C385.181 688.158 386.69 696.505 390.459 709.519C394.08 711.383 397.643 712.94 401.734 713.266C421.802 714.87 443.042 714.708 463.1 714.745L550.08 715.394C562.358 715.411 575.087 714.621 587.257 714.867C601.747 712.919 596.622 697.051 594.081 687.268C575.606 682.411 557.298 684.288 538.408 684.173L478.577 683.901C453.758 683.923 424.489 682.692 400.016 684.003ZM429.454 549.968C419.019 550.736 399.45 548.936 391.288 556.528C386.939 559.539 388.012 577.522 392.73 578.73C412.301 583.742 435.784 579.653 455.865 580.884C489.037 582.918 522.924 580.418 555.938 581.709C565.067 581.856 587.254 584.854 594.116 577.919C597.186 574.816 596.996 569.767 596.885 565.689C596.798 562.474 596.768 557.051 594.266 554.638C586.54 547.188 479.63 550.752 462.243 550.819C451.318 550.861 440.384 549.833 429.454 549.968Z" fill="#FE7F8E"/>
<path d="M333.906 7.32031C337.204 8.90973 340.341 16.2973 341.763 19.7065C357.354 56.64 317.349 90.6561 328.259 127.44C332.77 140.05 339.91 153.957 339.402 167.75C338.525 191.559 319.374 215.701 329.599 239.64C335.169 252.681 347.314 257.513 360.175 251.799C366.707 248.898 370.393 241.093 371.801 234.456C373.855 217.933 368.164 200.298 369.187 183.565C369.964 159.603 380.924 154.421 385.784 132.841C387.062 127.167 387.801 122.254 388.26 116.485C388.604 112.17 387.756 104.2 388.927 100.691L390.216 100.381C394.23 103.203 396.673 109.765 398.988 113.918C408.638 130.191 405.503 151.719 401.403 169.283C392.695 206.589 420.218 225.965 443.998 191.354C454.786 175.652 462.185 134.214 457 116.002C443.583 68.8731 441.772 59.8384 467.794 19.3202C463.652 65.5129 462.772 61.0428 482.91 102.081C489.257 114.946 492.821 129.004 493.372 143.338C494.396 177.249 471.786 204.653 468.583 237.534C467.927 244.24 470.002 257.377 475.349 262.171C486.28 271.971 504.139 267.001 510.143 254.213C518.387 236.652 511.81 220.241 517.486 202.724C520.734 192.701 529.776 183.038 536.88 176.018C534.091 188.864 530.316 204.277 532.147 217.304C533.835 228.01 543.479 237.173 552.494 226.925C579.334 196.415 564.236 159.358 553.976 126.308C546.621 102.616 553.513 71.6716 566.573 50.6347C566.141 60.5554 564.162 67.4506 565.977 78.264C569.399 100.113 581.315 117.981 590.382 137.55C599.767 157.809 602.393 186.167 597.192 207.861C592.829 226.061 580.61 249.12 588.705 267.745C592.112 275.522 598.495 281.608 606.425 284.641C614.351 287.701 622.332 287.799 630.12 284.337C638.668 280.537 644.826 273.842 649.885 266.175C679.559 221.212 618.746 190.707 643.566 127.57C644.843 124.322 647.227 117.648 650.419 116.243C651.206 118.395 650.884 128.565 651.291 131.584C652.204 138.36 655.827 155.199 658.591 161.01C671.688 188.549 691.269 199.092 696.403 232.501C700.19 257.148 689.026 271.122 686.581 294.75C685.178 308.317 690.721 326.175 690.83 340.878C691.202 359.023 683.94 377.859 686.75 395.926C688.677 408.304 696.358 421.646 710.537 415.449C717.584 412.37 721.478 407.388 725.541 401.257C740.824 378.194 733.015 353.333 727.276 328.737C727.039 327.696 726.815 326.652 726.602 325.606C720.377 294.866 730.692 271.951 747.44 246.602C745.468 260.655 742.505 286.755 745.521 300.179C751.065 324.866 769.567 343.768 769.83 371.556C769.877 376.521 769.792 381.593 768.88 386.641C767.218 395.842 761.753 409.033 756.989 417.182C751.123 427.217 742.279 437.214 735.391 447.276C718.933 471.471 702.047 499.819 704.333 530.184C704.82 536.662 711.216 550.204 719.508 547.958C747.891 540.268 746.364 505.72 755.249 483.471C759.622 472.521 765.382 463.453 772.021 453.709C769.559 466.661 766.65 476.368 766.402 490.43C765.705 529.92 770.327 557.765 743.998 591.003C731.361 606.955 717.913 615.09 705.282 631.359C693.15 646.985 684.044 672.691 672.887 687.128C672.926 686.665 672.96 686.201 672.991 685.737C674.452 663.857 673.645 628.065 673.385 605.827L673.049 506.321L673.4 402.601C673.467 380.766 674.13 360.762 672.049 338.4C668.037 290.072 626.838 294.995 590.808 291.539C578.722 290.38 566.458 291.641 554.444 291.11C533.738 290.195 513.118 290.117 492.404 289.897C482.193 289.789 471.789 291.049 461.559 291.108C435.635 289.996 410.781 291.418 384.773 291.128C327.477 290.488 269.48 288.5 212.257 292.304C201.07 293.047 187.845 300.086 179.545 307.491C181.048 299.966 185.889 280.875 185.227 274.485C182.248 245.762 168.067 239.698 174.171 207.869C181.488 169.716 205.58 159.203 217.782 126.615C222.179 114.871 220.422 96.9978 222.003 84.3168C225.016 91.5492 228.395 98.2918 231.363 105.746C250.77 154.767 188.901 198.22 227.744 243.867C239.738 260.042 260.489 260.039 275.096 247.327C302.74 223.268 305.37 184.081 295.607 150.839C291.934 137.84 289.074 119.13 293.517 105.888C308.101 62.4193 329.552 55.6877 333.906 7.32031Z" fill="#A3E635"/>
<path d="M111.954 205.914C112.199 205.959 113.073 206.083 113.238 206.24C126.992 219.358 136.949 240.125 137.959 259.142C138.484 269.045 138.708 279.5 136.561 288.157C128.872 319.107 110.734 348.253 120.274 381.192C123.503 392.339 134.485 407.289 148.412 402.794C157.835 399.752 160.194 387.912 163.948 380.035C165.644 384.985 165.358 408.64 165.648 414.9C167.509 454.961 165.192 494.886 165.428 534.898C165.214 544.771 164.585 554.614 164.414 564.491C163.798 600.259 168.257 642.414 164.718 677.526C152.847 655.737 140.903 628.914 125.367 610.152C121.79 605.831 110.537 596.931 105.215 591.387C59.5623 550.769 90.7946 508.402 67.7419 461.822C97.2982 478.915 94.7709 499.08 104.737 527.882C108.937 540.018 115.43 544.857 126.348 549.705C143.895 541.775 144.715 530.2 142.243 512.745C135.477 464.973 94.0141 437.441 80.1379 394.566C77.0712 385.092 78.0894 372.709 78.5254 362.757C80.1893 324.738 114.198 301.326 117.149 263.707C119.925 237.231 115.58 229.123 111.954 205.914Z" fill="#A3E635"/>
</svg>