<svg width="844" height="844" viewBox="0 0 844 844" fill="none" xmlns="http://www.w3.org/2000/svg">
<path d="M246.701 21.4341C252.713 23.8063 252.934 33.0146 254.068 38.736C262.663 82.1308 235.882 119.265 232.248 160.725C231.923 181.363 241.041 199.542 244.648 220.07C250.712 254.583 224.557 301.406 247.595 330.532C259.067 334.294 273.644 335.654 281.858 324.779C312.661 284 279.286 238.5 280.687 194.567C281.284 175.859 292.056 161.879 295.328 144.094C296.626 136.786 295.556 128.569 294.858 121.238C318.771 149.432 304.196 183.362 308.878 214.968C311.724 229.484 320.493 242.697 323.737 257.057C328.999 280.349 322.543 293.657 351.239 294.838C380.49 279.426 380.46 244.382 374.6 216.069C370.107 194.358 358.074 175.182 362.835 152.194C367.454 129.889 379.045 113.493 391.869 95.2954C402.969 79.6823 406.515 68.7699 406.251 49.7103C406.231 48.3195 406.892 47.3311 408.045 46.5549C408.514 46.8749 408.94 47.1325 409.288 47.6082C420.76 63.273 421.135 83.8409 416.534 101.971C414.314 110.72 409.926 120.482 407.276 129.235C403.669 141.049 400.319 152.962 398.966 165.315C396.679 186.183 410.371 227.979 435.319 228.993C465.487 230.22 470.85 188.653 467.82 166.353C467.336 162.799 464.856 153.72 465.025 151.148L466.398 151.548C511.367 192.95 472.335 242.654 482.353 276.514C487.632 280.26 492.395 283.092 499.077 282.914C520.793 282.332 526.078 270.789 532.728 253.653C551.444 205.427 522.587 160.254 522.877 112.107C522.988 93.6916 530.106 81.6595 543.046 69.1618C539.817 88.3087 541.307 118.258 550.625 135.318C562.986 157.951 574.711 170.942 575.868 198.806C577.208 231.067 557.607 256.197 552.794 287.854C551.246 298.037 550.242 306.148 549.768 316.593C549.094 331.43 552.551 350.65 545.909 364.168C538.816 378.608 522.328 387.139 510.769 398.418C503.712 405.304 500.582 411.431 494.971 417.357L493.792 417.225C491.543 412.603 491.691 394.563 491.557 388.54C489.338 347.798 502.08 298.142 448.933 287.005C444.745 286.128 438.873 286.443 435.117 288.634C405.044 305.314 379.356 329.371 352.469 350.465C327.725 369.877 301.827 389.137 277.152 408.814C272.839 411.957 267.231 415.06 262.106 416.187C233.191 422.547 188.6 414.235 161.117 420.126C156.511 421.122 152.159 423.053 148.33 425.799C139.652 431.925 125.527 450.327 124.375 460.047C122.528 475.629 123.734 496.472 123.94 512.581L124.947 605.917C125.115 617.386 125.134 628.857 125.004 640.327C124.582 666.144 121.861 671.016 138.062 693.026C130.594 690.197 129.822 689.223 123.707 684.297C104.371 668.726 102.101 645.042 86.16 625.741C78.5919 616.578 71.0342 608.093 63.332 599.318C33.3878 565.201 23.2643 528.036 34.8183 483.804C38.3541 470.267 44.1004 452.632 44.3136 438.528C44.3839 433.878 42.9173 422.78 42.4204 417.323C60.6374 442.565 61.5766 459.45 59.4145 489.421C58.2226 505.943 59.1165 524.454 74.5063 534.237C98.3195 512.572 100.233 477.363 100.949 447.126C101.178 437.428 101.098 423.772 98.9705 414.628C92.0598 387.897 81.3436 373.985 84.8629 345.397C89.3438 309.002 116.505 296.537 126.205 264.738C130.237 251.522 128.887 236.26 127.185 222.831C126.654 218.64 124.612 213.528 125.029 209.366L126.14 209.065C130.207 210.792 135.038 220.912 137.158 224.834C159.639 266.409 128.466 304.234 130.587 346.816C131.071 356.53 132.963 368.105 140.542 375.254C164.735 383.613 186.707 362.604 194.499 341.56C203.462 317.349 210.674 274.526 206.288 249.22C200.116 213.607 186.552 181.298 196.093 143.775C202.556 116.873 221.648 96.1189 233.145 70.936C241.327 53.014 243.719 40.6774 246.701 21.4341Z" fill="#A3E635"/>
<path d="M444.31 323.907C447.2 323.428 449.125 323.291 451.336 325.161C459.797 345.598 452.483 422.904 453.689 448.991C455.332 484.55 454.236 521.394 456.376 557.234C457.639 571.53 452.314 591.527 453.289 605.029C455.712 638.537 455.227 669.222 453.24 702.659C451.79 727.038 460.82 776.28 454.328 799.039C453.5 799.939 452.692 800.458 451.489 800.754C432.285 805.474 387.255 753.394 369.666 742.27C345.38 724.109 311.456 695.936 289.867 675.247C286.374 671.898 288.709 568.722 288.734 558.562L288.785 493.034C288.784 486.77 287.808 451.77 290.944 447.613C313.498 417.713 351.766 395.802 381.245 372.948C400.808 357.782 421.535 333.925 444.31 323.907Z" fill="#FE7F8E"/>
<path d="M671.884 128.759L673.448 129.759C674.501 138.226 669.683 153.194 671.927 162.429C675.452 176.939 682.623 185.974 690.212 198.214C700.007 214.016 706.587 231.687 707.771 250.313C709.254 269.664 699.337 286.501 694.446 304.415C690.398 319.246 690.016 344.978 694.943 359.608C700.441 375.932 715.71 401.486 728.067 413.34C734.301 414.449 737.993 414.235 744.145 413.792C772.352 397.457 742.242 351.642 745.293 325.72C748.587 297.724 761.474 280.265 782.532 262.242C778.889 275.43 773.392 287.192 771.488 300.997C764.635 350.681 800.674 375.283 799.345 421.011C798.28 457.649 766.142 488.354 765.107 527.818C764.811 539.065 767.701 551.629 775.724 559.872C777.974 562.184 780.814 564.587 784.245 564.448C801.934 563.732 800.338 514.745 810.629 504.456C811.961 505.204 812.502 505.923 812.702 507.557C816.883 541.775 826.032 570.443 808.136 602.018C800.717 612.482 792.603 622.688 782.787 630.732C767.366 643.37 756.851 652.958 746.305 670.235C738.551 682.939 724.278 692.22 711.924 700.451C719.123 684.886 727.602 666.968 733.138 650.874C738.033 637.685 739.406 621.957 742.889 608.766C749.757 582.753 747.143 561.081 744.011 534.681C742.29 520.182 743.544 505.264 738.661 490.865C723.392 445.843 701.444 404.529 662.079 375.893C649.246 366.23 645.054 362.371 630.051 354.043C618.511 347.636 608.993 347.968 602.049 344.553C602.381 340.427 610.38 334.466 610.131 323.035C610.031 318.483 611.571 308.326 609.515 302.034C604.431 286.473 600.833 280.912 608.152 264.292C610.691 258.525 622.343 230.724 626.752 228.821C628.178 230.263 628.149 232.734 628.522 234.729C633.914 263.654 610.036 275.889 643.655 295.593C651.237 293.796 659.14 291.351 663.319 284.014C684.891 246.143 646.645 209.52 653.249 169.608C656.253 151.456 662.003 143.838 671.884 128.759Z" fill="#A3E635"/>
<path d="M182.831 453.347C191.905 451.951 244.605 452.756 253.133 456.868C259.771 465.217 256.725 564.224 256.585 581.718L256.216 631.185C256.211 639.517 258.093 662.029 253.79 669.762C251.69 673.533 239.301 673.249 234.513 673.173C216.363 672.891 183.038 675.387 168.055 669.468C158.333 653.558 160.29 629.047 160.325 610.897L160.433 544.987C160.363 524.125 157.427 503.87 158.815 483.134C160.246 461.762 161.427 456.422 182.831 453.347Z" fill="#FE7F8E"/>
<path d="M594.451 379.887C596.221 380.045 600.056 380.432 601.541 381.019C750.452 439.892 739.369 672.917 613.159 744.671C605.805 747.903 593.122 751.499 586.858 745.376C575.445 734.22 591.647 720.796 598.683 714.156C649.462 666.233 681.24 598.098 667.915 527.457C662.632 499.453 652.864 474.896 636.207 451.48C622.428 434.39 605.134 420.599 589.387 405.573C584.166 400.591 590.183 384.863 594.451 379.887Z" fill="#FE7F8E"/>
<path d="M537.99 442.801C541.79 442.863 547.519 445.153 551.275 446.32C579.209 455.148 598.889 481.006 611.427 506.065C643.537 570.243 617.103 651.831 551.47 683.044C547.647 684.75 543.099 686.299 539.127 687.759C538.302 687.223 537.482 686.679 536.667 686.126C530.406 681.861 525.745 676.466 524.041 668.62C520.993 654.588 542.385 647.372 551.423 639.477C557.42 634.725 562.018 629.669 566.572 623.457C598.619 579.735 589.358 523.982 553.315 485.875C547.481 479.708 531.017 476.451 530.005 465.912C529.186 457.377 533.106 449.445 537.99 442.801Z" fill="#FE7F8E"/>
</svg>