<svg width="769" height="844" viewBox="0 0 769 844" fill="none" xmlns="http://www.w3.org/2000/svg">
<path d="M143.782 445.041C142.934 429.014 144.397 412.657 144.847 396.437C145.468 385.397 143.251 373.922 145.054 363.027C145.82 359.827 149.415 356.458 152.255 355.01C172.003 344.944 196.055 351.006 217.287 350.482C227.468 350.231 236.801 349.464 246.841 349.156C252.676 348.978 258.743 349.665 264.526 349.883C273.558 350.139 282.591 350.324 291.626 350.441C308.807 350.562 325.615 349.779 342.701 349.627C353.292 349.533 365.924 351.602 376.814 351.39C383.758 351.255 390.606 350.47 397.497 350.393L493.62 349.306C507.544 349.194 522.173 350.588 536.32 350.528C546.782 350.803 557.063 348.794 567.496 348.935C574.757 349.033 581.956 350.292 589.23 350.558C595.571 350.826 601.862 350.053 608.067 351.626C612.721 352.806 616.912 356.898 619.119 361.069C620.188 363.114 620.852 365.346 621.071 367.642C621.871 376.753 621.029 387.068 621.277 396.33C621.59 409.955 622.288 423.595 622.515 437.219C622.572 440.627 623.125 444.711 618.905 444.909C608.385 445.42 597.13 444.052 586.961 447.147C581.173 448.906 580.826 455.933 583.103 460.4C588.108 470.221 604.102 466.611 613.013 466.92C614.676 466.973 620.415 466.116 621.397 468.515C622.531 474.927 620.901 482.019 621.281 488.576C621.549 498.174 621.978 507.706 622.35 517.3C622.176 525.118 622.04 529.729 621.788 537.827C621.52 546.543 622.411 558.874 621.392 567.631C621.199 569.296 614.247 569.086 612.403 569.11C588.549 569.432 564.637 568.34 540.788 567.87C523.836 567.779 505.535 569.242 488.278 569.453C478.319 569.572 464.754 568.694 455.199 570.891C452.844 571.435 449.972 574.274 448.895 576.615C447.872 578.89 447.852 581.486 448.838 583.777C450.294 587.19 453.673 589.411 457.345 589.877C498.464 595.168 540.804 586.304 581.907 591.241C588.615 592.049 617.259 591.01 619.887 592.032C621.108 594.9 620.353 620.669 620.336 625.112L620.353 657.821C620.373 661.077 621 674.244 619.849 676.119C615.324 677.38 599.003 676.242 593.252 676.362C571.098 676.815 548.828 676.453 526.658 676.255C513.258 676.131 500.337 675.064 486.813 675.624C474.003 676.543 460.926 676.16 448.091 676.144C441.061 676.135 433.408 676.745 426.453 675.929C419.687 676.914 412.644 676.016 405.831 676.049C397.46 676.09 389.098 676.622 380.724 676.65C369.316 676.692 318.255 675.459 309.685 678.76C308.161 679.346 306.973 680.87 306.332 682.321C304.606 686.232 305.614 690.444 307.137 694.202C310.274 696.856 314.272 697.882 318.292 698.294C330.137 699.522 342.463 698.983 354.369 698.962C379.678 698.925 404.939 698.204 430.24 697.849C443.809 697.66 457.378 698.55 470.93 698.307C483.059 698.092 495.081 696.72 507.231 696.926C526.534 697.252 545.829 699.028 565.12 699.222C578.037 699.354 591.049 698.76 603.974 698.637C609.49 698.583 615.13 698.245 620.617 698.801C620.373 709.116 620.208 719.32 620.662 729.648C621.236 742.782 620.126 755.891 619.903 769.029C619.713 780.411 619.482 791.827 619.387 803.246C618.909 817.761 620.109 831.95 602.522 834.715C570.479 839.755 538.836 835.473 506.62 836.804C496.112 836.685 485.588 835.819 475.088 836.401C469.119 836.73 463.248 836.969 457.274 836.969C448.623 836.969 440.001 835.111 431.432 834.97C423.94 834.703 415.165 836.537 407.749 835.98C381.826 834.039 357.013 835.601 331.212 836.347C312.491 836.887 292.512 834.81 273.696 835.053C251.598 835.337 229.449 836.928 207.385 836.652C199.452 836.458 191.872 835.63 183.691 835.181C172.479 834.558 159.056 837.295 150.09 828.505C141.457 818.227 144.393 801.355 143.628 789.07C142.605 772.618 143.762 757.857 144.655 741.479C144.903 736.938 142.088 700.565 145.32 699.205C154.772 695.232 180.387 704.451 182.67 687.563C182.822 682.255 176.538 677.804 171.651 677.215C163.811 676.267 154.224 676.337 146.313 676.667C143.476 661.538 145.411 649.229 144.916 634.549C144.411 619.536 143.164 606.864 144.107 591.517C154.287 590.923 164.828 592.345 174.554 591.797C209.921 589.798 244.938 591.146 280.291 590.557C288.127 590.425 300.028 591.937 306.772 588.389C311.4 585.953 312.583 577.167 308.546 573.582C301.716 567.417 287.506 568.616 278.379 568.777C253.81 569.205 228.276 568.204 203.817 568.599L172.31 569.176C168.027 569.279 146.16 570.231 144.613 568.571C141.843 558.429 143.898 528.382 143.952 517.288C144.028 501.698 143.359 482.72 144.999 467.369C150.698 466.586 162.202 466.883 168.307 466.94L203.757 467.151L245.603 466.8C253.144 466.751 261.69 467.072 269.088 466.78C282.289 466.26 295.323 465.564 308.563 465.37C324.128 465.144 339.643 466.528 355.061 466.895C374.163 467.348 393.65 466.907 412.83 467.039C425.776 466.837 438.635 467.493 451.548 466.285C459.915 465.502 465.983 457.33 460.538 449.792C458.999 447.662 453.256 445.585 450.542 445.395C427.711 443.817 404.666 445.453 381.787 445.028C370.796 444.818 359.985 444.88 349.022 444.678C343.932 444.583 338.702 443.875 333.59 443.673C316.585 442.881 299.557 442.696 282.539 443.116C273.984 443.31 265.603 444.414 257.26 444.604C230.996 444.991 204.729 445.074 178.464 444.855C171.439 444.859 164.414 444.925 157.39 445.057C153.079 445.144 147.974 445.519 143.782 445.041ZM355.916 582.088C362.54 575.902 368.437 570.565 378.074 570.866C383.925 571.019 389.473 573.491 393.495 577.74C399.274 583.889 400.482 593.248 400.149 601.342C399.831 609.081 397.758 617.006 391.804 622.339C387.177 626.48 381.826 627.951 375.693 627.593C369.638 627.239 364.542 624.972 360.529 620.373C356.894 616.206 355.418 611.723 354.686 606.34C344.222 606.213 333.85 606.007 323.405 606.773C325.656 621.556 328.599 632.518 341.24 641.889C353.692 651.12 371.894 654.298 387.044 652.031C387.142 652.019 387.24 651.998 387.338 651.982C391.199 651.021 395.145 650.267 398.904 648.953C410.066 645.05 418.841 637.195 424.91 627.222C433.115 613.734 434.794 596.458 430.916 581.317C427.896 569.523 421.032 559.376 410.376 553.224C398.698 546.477 382.66 544.635 369.671 548.221C365.192 549.457 361.125 551.67 357.082 553.904C358.053 549.024 360.249 523.453 362.505 521.557C367.385 519.732 374.744 520.716 379.946 520.758L409.05 520.894C413.965 520.906 419.27 521.306 424.138 520.716C425.17 520.593 425.854 520.56 426.589 519.777C427.335 511.807 426.131 503.688 426.733 495.689C412.974 495.067 399.109 495.384 385.334 495.388C370.084 495.388 354.794 495.137 339.549 495.504C338.519 496.381 338.356 497.3 338.128 498.594C337.258 503.532 336.992 508.687 336.453 513.669C335.678 520.824 334.73 527.986 333.8 535.124L329.787 565.274C329.233 569.572 328.342 573.998 328.101 578.309C328.052 579.178 328.073 579.821 328.541 580.584C333.28 581.919 350.207 582.014 355.916 582.088ZM469.37 388.288C469.597 397.255 469.399 406.226 469.416 415.196C495.287 415.171 521.175 415.344 547.046 415.002C541.328 421.274 536.596 428.771 531.831 435.781C509.45 468.749 495.671 502.406 492.441 542.323C496.781 542.41 523.225 543.444 525.053 541.648C525.094 541.606 525.111 541.544 525.144 541.491C527.268 503.544 541.963 466.813 562.385 435.121C565.537 430.23 569.175 425.42 572.723 420.809C574.935 417.936 578.487 414.701 579.745 411.301C582.035 405.126 579.745 395.142 580.401 388.32C552.471 388.099 524.541 388.055 496.611 388.186C487.544 388.199 478.434 388.451 469.37 388.288ZM186.49 656.486C196.084 656.094 205.748 656.449 215.353 656.461C216.521 648.466 217.66 639.964 224.686 634.858C229.279 631.52 235.052 630.523 240.585 631.496C245.645 632.386 250.576 634.982 253.515 639.301C257.037 644.473 257.458 651.874 256.143 657.834C255.181 662.19 252.969 665.565 249.165 667.963C242.435 672.204 233.901 672.072 226.221 672.29C225.992 679.688 226.105 687.048 226.074 694.441C234.835 694.425 248.021 694.754 254.695 701.303C259.115 705.638 260.634 712.051 260.564 718.051C260.491 724.48 258.175 731.535 253.474 736.081C249.309 740.107 243.169 741.891 237.474 741.681C231.476 741.459 224.71 739.53 220.525 735.009C218.203 732.5 216.57 729.174 215.445 725.972C214.862 724.311 213.67 716.168 213.511 715.924C213.374 715.71 213.111 715.615 212.911 715.463L212.155 715.426C202.7 715.174 193.257 715.31 183.804 715.179C183.917 730.295 185.615 741.224 196.909 752.425C208.091 763.511 224.376 766.853 239.587 766.725C254.044 766.606 269.604 761.693 279.939 751.197C289 741.995 293.224 728.762 293.009 716.027C292.836 705.815 289.718 695.191 282.204 687.946C278.905 684.765 275.025 682.383 271.063 680.129C278.709 675.657 284.281 668.355 286.57 659.808C289.244 649.633 287.409 636.585 281.987 627.556C276.152 617.842 265.681 611.298 254.805 608.698C247.594 606.975 240.15 607.194 232.787 607.243C219.536 608.042 206.867 612.361 197.843 622.644C189.896 631.698 186.965 644.77 186.49 656.486Z" fill="#FE7F8E"/>
<path d="M426.453 675.929C430.029 675.6 433.495 674.47 437.101 674.338C446.474 674.083 455.983 673.522 465.361 673.844C472.089 674.079 480.679 672.933 486.813 675.624C474.004 676.543 460.926 676.16 448.091 676.143C441.061 676.135 433.408 676.745 426.453 675.929Z" fill="#FE7F8E"/>
<path d="M169.293 95.1958C173.424 100.262 177.184 108.169 179.447 114.332C192.297 149.323 173.098 176.497 164.036 208.842C161.566 217.274 159.971 224.127 161.471 232.757C168.16 267.222 197.13 294.519 228.52 265.44C256.426 241.508 260.307 201.248 250.217 167.732C244.481 151.133 242.12 129.5 247.637 112.384C252.142 98.4053 261.659 80.9562 270.128 68.7346C276.746 59.1848 281.046 51.4075 285.381 40.3891C287.042 36.0506 288.305 31.5706 289.156 27.0041C289.925 22.8555 289.831 12.0827 291.474 9.75936L292.251 9.66602C294.63 11.546 296.714 18.1092 298.174 21.2514C314.093 55.5471 284.644 86.0919 282.602 120.149C281.631 136.351 286.391 144.142 291.939 158.542C294.896 166.219 295.504 176.527 295.649 184.767C295.881 197.956 289.112 209.649 286.266 222.243C283.699 231.29 282.425 238.142 282.716 247.64C283.433 271.021 310.029 285.498 326.456 265.524C327.933 263.728 330.061 260.974 330.679 258.573C334.541 243.584 330.123 227.866 329.017 212.799C327.821 197.765 329.578 183.184 336.39 169.746C341.939 158.801 345.751 152.31 347.787 139.745C348.314 136.292 348.639 132.811 348.759 129.32C348.887 126.133 348.235 109.089 349.417 107.693L350.248 107.88C352.384 109.647 353.871 112.15 355.305 114.486C357.882 118.686 360.985 123.228 362.811 127.792C367.462 139.412 368.493 158.711 366.216 171.136C365.417 175.501 363.899 179.757 362.884 184.079C360.001 196.355 360.476 207.97 367.258 218.747C369.665 222.572 372.642 225.828 377.287 226.744C383.378 227.947 390.076 226.294 395.161 222.852C403.551 217.175 411.678 205.022 415.59 195.759C422.636 179.07 426.931 151.652 424.365 133.597C421.089 110.518 409.107 88.5006 413.973 64.7083C416.168 53.9848 425.153 32.024 434.679 25.7106C433.635 29.109 433.185 31.8546 432.905 35.4014C431.494 53.3555 431.284 72.1238 439.328 88.7141C441.882 93.9805 445.046 98.7407 447.559 103.894C455.529 120.243 461.734 137.897 462.151 156.153C462.411 166.837 460.996 177.496 457.963 187.745C455.665 195.503 453.231 199.651 450.529 206.923C444.37 224.379 434.551 245.628 435.562 264.465C436.395 279.974 444.84 290.908 461.078 288.845C473.603 288.581 484.998 273.556 485.889 261.541C487.597 238.452 481.256 225.124 497.292 204.302C498.876 201.869 504.458 194.952 506.995 194.08L507.866 194.398C509.005 197.021 506.117 207.529 505.341 211.031C503.695 224.475 499.718 244.56 516.476 250.315C549.03 242.056 545.049 182.367 535.024 158.362C530.746 148.125 526.208 135.796 525.47 124.627C524.141 104.509 526.876 75.5616 540.136 59.6942C540.037 68.1433 539.674 82.4941 541.505 90.2649C545.256 106.22 552.941 122.519 560.598 136.998C562.727 141.026 566.882 148.668 568.458 152.706C573.78 166.304 576.383 183.506 576.779 198.123C576.993 206.144 575.397 221.018 573.437 228.637C568.416 248.179 556.914 269.183 565.45 289.62C568.738 297.487 576.931 305.034 584.815 307.976C591.986 310.654 603.186 311.109 610.101 307.485C619.573 302.336 627.655 293.924 633.257 285.192C649.372 260.072 637.3 238.167 626.838 213.845C622.106 202.845 617.91 184.454 618.001 172.09C618.051 165.314 620.464 151.008 622.997 144.27L623.17 143.815C624.928 137.163 628.15 129.832 632.54 124.466C631.356 132.649 633.414 138.359 633.241 145.631C637.602 169.324 643.183 184.922 659.021 203.581C669.537 215.97 678.337 233.642 681.473 249.326C686.398 273.996 674.286 295.397 670.759 319.003C669.595 326.8 672.198 339.756 673.37 347.841C674.443 354.889 675.008 362.006 675.057 369.136C675.185 388.854 669.211 407.389 671.423 426.896C672.677 437.961 680.8 452.987 694.06 449.9C701.213 448.359 707.133 443.236 711.049 437.199C724.155 416.585 726.008 401.579 720.81 377.624C718.924 368.922 715.69 359.024 714.056 350.908C709.497 328.599 713.672 305.393 725.715 286.062C730.084 278.137 730.571 274.884 737.312 268.52C735.839 275.271 734.647 282.08 733.739 288.93C732.415 300.494 732.914 319.246 736.185 330.485C739.432 341.616 744.709 349.532 749.697 359.835C757.902 377.205 763.534 398.261 760.246 417.578C756.12 441.814 740.934 459.922 726.858 478.88C710.421 501.014 694.493 527.669 690.998 555.416C689.847 564.549 690.177 578.445 696.205 586.551C710.046 602.01 730.76 575.762 734.263 563.589C740.938 540.379 743.76 511.032 762.795 493.237C760.736 501.142 760.34 508.102 758.929 515.932C754.098 542.732 761.034 569.601 754.243 596.393C750.542 610.998 741.12 629.011 731.301 640.43C715.875 658.37 696.019 670.354 684.591 691.837C681.596 697.269 660.618 736.534 657.619 738.451C656.191 737.396 657.483 697.804 657.606 694.153C658.576 668.157 655.841 642.211 657.169 616.269C657.582 604.103 657.235 591.921 657.388 579.731C657.668 568.723 656.109 556.723 656.633 545.806C657.738 522.757 659.166 500.519 656.934 477.458C656.303 470.955 656.645 461.521 656.752 454.825L657.272 420.067C657.586 406.095 658.143 391.221 656.868 377.283C655.853 366.173 653.864 347.979 647.144 338.922C639.916 329.179 627.127 321.117 615.101 319.296C611.211 318.706 603.624 318.886 599.09 318.573C583.541 317.502 567.901 315.635 552.389 314.873C545.912 314.555 538.44 315.279 531.745 315.194C521.736 315.068 511.921 313.973 502.024 313.526C494.07 313.167 485.06 313.763 476.916 313.635C470.196 313.528 462.98 313.101 456.354 313.179C447.872 313.222 439.089 315.07 430.611 314.928C412.541 314.623 395.231 313.439 377.126 314.478C366.24 315.102 354.61 314.234 343.611 314.815C334.027 315.322 323.705 313.444 314.066 313.481C306.589 313.395 298.861 314.607 291.095 314.526C278.382 314.393 265.061 312.983 252.422 313.045C238.163 313.114 223.388 314.1 209.066 314.395C192.702 314.731 176.672 314.048 160.41 315.992C146.499 317.654 138.346 320.889 127.215 329.315C126.242 330.051 125.557 330.502 124.43 330.338C123.914 328.952 131.879 303.571 129.489 293.232C123.636 267.913 112.69 250.562 118.593 223.636C123.843 199.684 134.801 183.029 150.099 164.064C169.972 140.811 168.632 124.174 169.293 95.1958Z" fill="#A3E635"/>
<path d="M725.715 286.062C730.084 278.137 730.571 274.884 737.312 268.52C735.839 275.271 734.647 282.08 733.739 288.93C733.331 288.415 733.302 288.248 733.005 287.653C733.5 284.775 733.566 279.813 732.72 277.098L732.163 276.899C729.519 279.288 728.809 283.975 726.833 286.156L725.715 286.062Z" fill="#FE7F8E"/>
<path d="M632.54 124.466C631.356 132.649 633.414 138.359 633.241 145.631C632.152 144.557 631.492 144.187 631.508 142.552C631.537 139.739 632.127 133.057 631.104 130.648L630.394 130.56C627.886 132.508 625.662 136.855 626.954 140.062C628.356 141.185 627.572 140.836 629.425 141.064C627.465 142.405 627.02 141.387 624.462 142.302L624.037 143.854L623.171 143.815C624.928 137.163 628.15 129.832 632.54 124.466Z" fill="#FE7F8E"/>
<path d="M497.292 204.302C498.876 201.869 504.458 194.952 506.995 194.08L507.866 194.398C509.005 197.021 506.117 207.529 505.341 211.031C504.45 207.532 507.507 199.644 505.634 197.178C503.468 197.27 500.155 202.279 498.022 204.478L497.292 204.302Z" fill="#FE7F8E"/>
<path d="M50.0828 224.047C76.1632 240.713 84.0322 286.316 76.2358 315.091C66.5862 350.705 38.7591 397.118 71.2847 430.84C76.3332 436.074 84.7018 435.851 91.4673 435.216C98.1721 430.308 102.072 422.927 105.075 415.435L106.967 415.88C108.336 426.348 108.183 436.683 108.54 447.163C109.424 473.172 109.168 499.406 109.075 525.448L108.544 585.645C108.474 593.437 106.783 602.191 107.256 609.951C108.193 625.322 109.262 642.874 108.019 658.081C107.295 666.941 111.102 725.23 107.507 728.238C105.004 727.41 101.362 719.304 100.025 716.77C93.259 703.928 87.6607 690.642 79.4818 678.571C75.4152 672.571 71.9543 665.94 67.0264 660.525C56.5331 649.41 43.4741 640.649 33.9384 628.603C18.8975 609.988 11.5806 587.981 13.1551 564.083C14.3152 546.478 14.402 529.054 8.34296 512.211C7.2468 509.165 4.85482 505.32 4.22171 502.514L4.68299 501.83C7.22003 501.389 17.334 507.987 19.2828 510.228C27.4184 519.6 32.3993 532.824 35.8217 544.66C37.4811 552.169 38.9865 558.965 41.2041 566.403C44.2518 576.619 57.5257 596.17 70.63 591.101C86.7415 584.866 85.741 565.018 82.7628 550.768C77.3608 524.924 63.2944 500.651 47.5443 479.683C37.6844 466.479 26.575 454.054 20.4502 438.592C18.4148 433.469 15.7685 426.286 14.8957 420.97C11.1836 398.35 16.8764 368.607 28.1389 348.812C35.1154 336.551 44.767 323.831 50.2536 310.499C58.6936 289.99 58.2707 267.356 55.071 245.806C53.9525 238.271 53.0045 231.169 50.0828 224.047Z" fill="#A3E635"/>
<path d="M105.075 415.435C105.254 413.428 105.462 409.208 106.515 407.652L106.734 408.282L106.194 408.322L106.148 408.532L106.824 408.912C107.052 411.552 107.03 413.226 106.966 415.88L105.075 415.435Z" fill="#A3E635"/>
</svg>