<svg width="1065" height="1041" viewBox="0 0 1065 1041" fill="none" xmlns="http://www.w3.org/2000/svg">
<g filter="url(#filter0_d_4261_635)">
<path d="M530.03 398.524C530.597 398.484 531.122 398.459 531.71 398.465C592.125 399.027 645.277 424.858 682.744 472.364C691.278 483.051 696.046 494.661 702.572 506.403C709.504 518.879 711.512 535.621 718.943 546.873C722.323 551.99 739.556 554.163 745.916 555.952C753.451 558.006 760.851 560.528 768.074 563.492C783.264 569.825 795.734 579.362 807.382 590.895C817.377 600.795 829.327 617.107 835.796 629.727C845.838 649.304 849.733 673.249 849.79 695.068C849.894 735.647 833.233 774.739 803.758 802.719C794.242 811.819 777.206 823.56 765.079 828.416C759.775 830.543 750.466 835.254 745.36 836.814C720.399 844.437 691.454 842.653 665.375 842.529C645.011 842.43 625.173 843.236 605.1 843.246C604.32 833.081 604.71 821.651 604.856 811.371C605.058 794.54 605.48 777.708 606.114 760.887C618.007 759.457 628.886 761.485 641.247 758.734C661.73 754.465 673.02 731.872 667.44 712.331C663.025 696.872 653.02 687.455 643.129 675.007L604.07 626.316C594.2 614.096 585.766 601.388 575.11 589.626C567.581 581.306 562.76 570.626 552.141 564.776C541.236 558.77 531.262 558.911 519.642 562.062C505.459 565.593 499.537 577.536 491.376 587.972L461.746 625.151C458.311 629.436 452.868 634.583 449.824 638.827C442.664 648.81 436.365 657.13 428.554 666.625C422.515 673.967 416.568 681.382 410.716 688.869C408.554 691.604 406.421 694.36 404.267 697.101C392.395 712.216 393.394 736.765 407.467 750.274C420.696 762.977 442.719 761.339 459.868 760.507C460.952 774.916 460.482 788.711 460.175 803.13C459.895 816.249 459.844 829.217 459.185 842.336C445.562 845.461 414.544 843.376 399.466 843.912C368.2 845.014 334.195 844.125 303.967 835.686C294.673 832.982 286.67 827.834 278.105 823.659C259.059 814.377 238.182 794.654 226.307 777.167C212.123 754.657 200.043 723.932 198.626 697.366C195.707 642.633 219.446 583.911 267.465 554.694C281.599 546.098 289.841 541.84 305.72 536.614C312.599 532.569 348.391 531.461 351.249 526.786C356.451 518.274 373.351 481.416 382.466 471.653C387.28 466.495 393.186 459.216 397.531 454.727C433.879 417.166 479.025 401.814 530.03 398.524Z" fill="#FE7F8E"/>
<path d="M315.627 61.6416C322.284 70.6924 322.484 78.2061 323.709 88.7762C328.2 127.522 313.447 157.214 304.043 193.232C302.327 199.807 298.542 216.081 298.488 222.68C298.28 248.083 312.25 276.805 313.333 301.619C314.596 330.569 302.556 362.06 305.829 391.449C306.49 397.383 310.958 413.871 316.032 416.926C320.898 419.854 334.256 420.587 340.423 419.258C351.779 416.81 356.485 407.577 362.251 398.105C375.083 375.828 369.312 341.212 362.901 317.346C355.471 289.682 347.535 262.573 359.254 234.364C363.545 224.034 367.774 217.101 370.19 205.722C371.319 200.406 369.836 180.026 370.742 178.508L371.704 178.631C389.911 196.789 386.143 236.052 385.295 259.539C384.979 268.307 384.647 277.102 386.245 285.867C389.096 301.514 399.682 314.106 402.733 329.617C405.617 341.75 405.372 357.938 411.164 367.99C414.591 373.071 419.907 373.976 425.014 374.973C438.252 377.56 444.914 369.745 452.236 360.151C454.128 357.672 459.021 351.221 460.175 348.262C469.785 323.633 465.323 295.586 458.404 270.831C454.806 258.156 449.154 247.587 447.398 234.387C446.201 225.398 446.88 214.295 449.23 205.627C455.298 183.238 471.276 160.837 483.641 141.331C486.735 136.45 489.94 133.806 492.166 128.662C497.657 115.975 498.068 103.181 499.67 89.7174C513.366 103.969 514.506 129.488 511.469 148.006C510.455 154.186 507.257 163.288 505.233 169.526C498.127 191.739 489.982 214.242 490.313 237.985C490.634 261.018 506.495 301.121 534.694 300.153C564.731 299.122 571.642 255.703 568.974 232.811C568.137 225.621 566.338 218.178 565.963 210.781L565.922 209.858C569.161 213.386 572.942 217.629 576.145 221.018C591.356 236.74 594.336 260.212 592.417 281.25C590.742 299.623 585.61 321.338 598.626 337.338C602.385 341.964 608.886 342.271 614.315 342.592C621.465 343.016 626.65 339.46 631.33 334.53C637.227 328.902 645.552 318.053 648.053 310.278C654.725 289.511 649.099 259.014 644.247 237.979C642.375 229.859 639.395 222.108 637.648 213.472C634.528 198.076 631.933 182.628 632.089 166.892C632.177 157.85 634.959 140.733 640.175 133.388C641.652 131.309 653.628 118.478 655.797 116.376C653.243 133.581 653.233 161.779 658.36 178.337C660.102 183.97 668.287 200.933 671.824 206.303C682.775 222.914 690.581 236.814 692.078 257.381C692.843 267.854 693.29 281.899 691.2 292.292C685.828 319.012 673.222 344.774 676.691 372.779C678.225 385.161 685.562 401.65 695.339 410.052C699.385 413.529 708.521 415.028 713.919 413.838C733.248 409.576 729.624 384.809 729.624 370.188C729.665 364.417 730.118 358.656 730.981 352.949C733.16 338.167 742.005 312.538 750.695 300.585L751.288 299.781C761.454 319.735 742.385 368.134 775.838 373.323C787.221 375.089 793.118 364.736 797.268 355.946C810.04 328.901 792.062 299.136 785.671 272.642C782.603 259.979 780.523 248.246 781.938 235.229C783.456 219.378 790.18 199.126 802.359 187.927C803.461 186.911 803.539 187.127 804.642 187.26C807.133 191.206 803.659 213.879 804.215 220.441C805.437 234.866 810.97 241.885 817.876 253.9C825.807 266.913 833.539 279.047 838.511 293.225C851.256 329.603 843.076 354.044 829.332 388.153C825.411 397.895 824.091 428.852 827.533 439.205C835.266 462.438 846.914 490.302 864.226 508.294C870.44 514.835 878.568 513.618 886.654 513.031C903.295 500.756 902.223 489.994 899.239 471.367C897.096 457.988 892.447 446.583 889.384 433.675C880.991 398.32 902.598 358.394 931.48 338.594C926.883 356.062 919.873 367.669 917.949 386.31C915.094 413.963 919.743 426.183 930.83 450.143C941.365 472.928 951.859 501.093 949.93 526.417C948.406 546.473 937.008 567.927 928.984 586.278C926.586 591.623 922.613 597.218 920.622 602.626C911.818 626.529 904.954 653.927 919.358 677.17C923.014 683.061 927.777 685.568 934.257 686.862C937.559 685.048 940.949 682.708 943.081 679.531C950.299 668.778 954.48 624.954 962.712 620.149C963.487 619.691 963.721 619.998 964.506 620.243C966.919 623.43 967.299 632.161 967.943 636.45C972.436 666.282 978.047 701.037 961.178 728.066C945.551 753.113 923.066 766.809 903.648 787.941C893.83 798.424 887.299 814.263 876.139 823.347C854.538 840.927 829.608 857.135 803.238 866.464C785.307 872.807 757.356 874.44 738.292 873.047L738.339 872.5C742.91 870.327 749.104 869.303 753.68 867.451C761.974 864.139 771.407 860.557 779.301 856.563C797.242 847.49 812.364 837.215 826.394 822.749C832.822 816.124 839.254 811.195 844.714 803.031C855.437 787.005 865.619 769.669 871.802 751.345C885.598 708.176 883.726 656.797 863.981 615.724C857.637 602.516 846.306 587.863 837.455 576.023C834.351 571.89 828.724 567.766 824.912 564.158C810.466 550.357 795.406 541.18 777.112 533.286C771.771 530.983 745.079 524.348 743.404 521.42C737.7 511.423 734.756 499.36 729.192 489.151C719.707 471.763 710.419 454.015 696.025 440.117C691.361 435.609 686.998 429.256 682.021 425.042C666.083 411.552 648.194 399.39 629.796 389.52C622.333 385.594 607.596 380.543 599.791 377.967C555.1 363.342 506.043 365.043 461.599 379.608C439.507 386.848 421.046 396.341 402.296 410.207C396.968 414.146 390.437 418.133 385.551 422.461C379.205 428.083 373.369 435.211 367.561 441.434C365.399 443.832 358.446 450.803 356.943 453.047C352.026 460.391 346.27 470.565 341.638 478.082C339.518 481.523 332.351 498.49 330.31 499.177C319.125 502.943 301.472 504.906 289.897 508.991C282.748 511.515 271.379 515.809 265.167 519.346C253.919 526.693 236.463 536.099 227.405 545.844C219.037 554.845 205.945 569.227 199.022 578.956C189.824 591.888 183.442 608.829 178.365 623.721C168.085 653.875 164.334 686.316 169.251 717.895C172.117 735.007 181.625 761.209 189.572 776.528C201.75 799.995 224.196 825.208 245.655 840.693C260.116 851.124 288.216 863.89 305.08 869.11C310.104 870.223 320.132 872.007 324.507 873.504C317.243 874.419 312.306 874.513 305.063 874.253C291.19 875.152 269.196 872.256 255.973 868.216C239.671 863.177 225.304 854.286 210.262 846.699C193.901 838.447 175.533 829.098 163.49 814.824C152.136 801.367 147.116 781.665 137.106 766.851C130.654 757.299 123.999 748.698 116.198 740.14C111.445 734.851 106.65 730.452 101.931 724.93C94.7761 716.564 91.5167 710.132 85.9899 701.562C70.4018 678.278 65.1678 655.461 66.0898 627.845C66.7616 607.716 70.6244 591.404 76.0237 572.02C77.3014 567.439 80.2572 562.353 80.8365 557.699C81.8167 549.822 82.0596 541.445 81.889 533.505C81.7538 528.555 80.6056 522.648 81.0492 517.861C85.3742 525.705 91.8084 534.867 94.7023 543.213C100.009 558.651 100.926 574.646 100.208 590.843C99.2519 612.375 94.8677 640.023 118.093 651.639C122.107 645.794 129.397 635.67 132.465 629.691C145.885 603.53 148.297 574.219 147.606 545.277C147.318 533.198 147.407 520.422 144.264 508.766C142.708 502.998 139.31 497.242 137.369 491.614C129.709 469.397 125.394 452.253 129.13 428.716C135.304 389.821 174.026 367.592 178.729 329.434C181.086 310.318 176.691 294.786 175.1 276.559C184.552 285.238 186.023 289.315 191.009 300.81C204.119 331.031 195.599 361.191 187.43 391.26C185.949 396.711 184.747 405.289 183.657 411.045C181.296 423.786 180.295 436.74 183.353 449.456C184.987 456.255 187.342 467.75 195.232 469.733C203.107 471.713 215.766 470.776 223.083 466.851C234.804 460.563 244.642 448.762 251.132 437.322C253.913 432.285 256.775 421.587 258.397 415.955C266.05 389.382 272.176 362.239 269.499 334.435C268.689 324.149 265.919 314.32 263.534 304.325C261.755 296.869 260.447 289.076 258.598 281.664C252.521 257.31 250.54 231.323 255.013 206.449C259.603 180.924 277.981 156.946 290.238 134.467C292.989 129.422 296.594 124.332 299.12 119.106C303.787 107.603 308.148 95.3108 310.856 83.1818C312.373 76.3862 313.246 68.9322 315.349 62.4777L315.627 61.6416Z" fill="#A3E635"/>
<path d="M305.08 869.11C310.104 870.223 320.132 872.007 324.507 873.504C317.243 874.419 312.306 874.513 305.063 874.253L304.455 873.593L304.736 872.979C305.592 872.937 311.358 873.135 311.343 873.135L311.173 872.1C309.258 870.66 306.891 870.675 304.103 869.651L305.08 869.11Z" fill="#ADC672"/>
<path d="M530.623 590.567C533.306 590.261 535.703 591.191 537.565 593.063C548.387 603.936 557.196 616.499 566.572 628.464L610.128 684.309C618.178 694.615 628.854 704.776 635.557 716.59C637.502 720.022 637.84 722.549 636.821 726.355C634.055 729.329 627.45 729.366 623.529 729.282C607.128 728.934 591.096 728.295 574.694 729.225C573.566 735.782 573.727 746.743 573.758 753.498L573.852 782.97C573.477 819.749 573.467 856.527 573.821 893.305C573.977 911.811 567.778 911.946 550.981 912.05C545.896 912.087 540.586 912.04 535.49 912.014C527.248 911.899 500.511 913.938 494.483 908.275C490.016 904.079 490.985 886.379 490.939 879.297L490.706 845.233C490.318 806.401 490.256 767.569 490.52 728.736C480.3 729.314 469.928 728.877 459.685 729.022C451.904 729.137 443.607 729.979 435.883 729.236C433.853 729.038 430.311 728.638 428.923 727.015C427.57 725.429 427.257 722.606 427.556 720.63C428.723 712.945 489.728 639.16 500.101 626.061C504.797 620.133 508.813 613.535 513.656 607.774C518.637 601.846 524.185 594.925 530.623 590.567Z" fill="#A3E635"/>
</g>
<defs>
<filter id="filter0_d_4261_635" x="-4" y="0" width="1073" height="1049" filterUnits="userSpaceOnUse" color-interpolation-filters="sRGB">
<feFlood flood-opacity="0" result="BackgroundImageFix"/>
<feColorMatrix in="SourceAlpha" type="matrix" values="0 0 0 0 0 0 0 0 0 0 0 0 0 0 0 0 0 0 127 0" result="hardAlpha"/>
<feOffset dy="4"/>
<feGaussianBlur stdDeviation="2"/>
<feComposite in2="hardAlpha" operator="out"/>
<feColorMatrix type="matrix" values="0 0 0 0 0 0 0 0 0 0 0 0 0 0 0 0 0 0 0.25 0"/>
<feBlend mode="normal" in2="BackgroundImageFix" result="effect1_dropShadow_4261_635"/>
<feBlend mode="normal" in="SourceGraphic" in2="effect1_dropShadow_4261_635" result="shape"/>
</filter>
</defs>
</svg>